<?xml version="1.0" encoding="UTF-8"?>
<svg width="34px" height="34px" viewBox="0 0 34 34" version="1.1" xmlns="http://www.w3.org/2000/svg" xmlns:xlink="http://www.w3.org/1999/xlink">
    <title>ic-close</title>
    <g id="Privacy-Policy-(Modal)" stroke="none" stroke-width="1" fill="none" fill-rule="evenodd">
        <g id="Desktop---1440-(Modal)" transform="translate(-1116.000000, -75.000000)">
            <g id="Modal" transform="translate(270.000000, 55.000000)">
                <g id="ic-close" transform="translate(846.000000, 20.000000)">
                    <rect id="Rectangle" x="0" y="0" width="34" height="34"></rect>
                    <path d="M12.6287944,11.5359931 L16.9996665,15.9066665 L21.3712056,11.5359931 C21.6729743,11.2342243 22.1622382,11.2342243 22.4640069,11.5359931 C22.7657757,11.8377618 22.7657757,12.3270257 22.4640069,12.6287944 L18.0926665,16.9996665 L22.4640069,21.3712056 C22.7657757,21.6729743 22.7657757,22.1622382 22.4640069,22.4640069 C22.1622382,22.7657757 21.6729743,22.7657757 21.3712056,22.4640069 L16.9996665,18.0926665 L12.6287944,22.4640069 C12.3270257,22.7657757 11.8377618,22.7657757 11.5359931,22.4640069 C11.2342243,22.1622382 11.2342243,21.6729743 11.5359931,21.3712056 L15.9066665,16.9996665 L11.5359931,12.6287944 C11.2342243,12.3270257 11.2342243,11.8377618 11.5359931,11.5359931 C11.8377618,11.2342243 12.3270257,11.2342243 12.6287944,11.5359931 Z" id="Combined-Shape" fill="#212223"></path>
                </g>
            </g>
        </g>
    </g>
</svg>