<?xml version="1.0" encoding="UTF-8"?>
<svg width="135px" height="40px" viewBox="0 0 135 40" version="1.1" xmlns="http://www.w3.org/2000/svg" xmlns:xlink="http://www.w3.org/1999/xlink">
    <title>ic-google-play</title>
    <defs>
        <linearGradient x1="60.9501376%" y1="4.84%" x2="26.2753906%" y2="71.968%" id="linearGradient-1">
            <stop stop-color="#00A0FF" offset="0%"></stop>
            <stop stop-color="#00A1FF" offset="0.7%"></stop>
            <stop stop-color="#00BEFF" offset="26%"></stop>
            <stop stop-color="#00D2FF" offset="51.2%"></stop>
            <stop stop-color="#00DFFF" offset="76%"></stop>
            <stop stop-color="#00E3FF" offset="100%"></stop>
        </linearGradient>
        <linearGradient x1="107.724138%" y1="49.4235294%" x2="-130.669951%" y2="49.4235294%" id="linearGradient-2">
            <stop stop-color="#FFE000" offset="0%"></stop>
            <stop stop-color="#FFBD00" offset="40.9%"></stop>
            <stop stop-color="#FFA500" offset="77.5%"></stop>
            <stop stop-color="#FF9C00" offset="100%"></stop>
        </linearGradient>
        <linearGradient x1="86.3892216%" y1="30.6999802%" x2="-49.8862275%" y2="136.582589%" id="linearGradient-3">
            <stop stop-color="#FF3A44" offset="0%"></stop>
            <stop stop-color="#C31162" offset="100%"></stop>
        </linearGradient>
        <linearGradient x1="-18.5808383%" y1="-12.0993747%" x2="42.2754491%" y2="34.9649813%" id="linearGradient-4">
            <stop stop-color="#32A071" offset="0%"></stop>
            <stop stop-color="#2DA771" offset="6.9%"></stop>
            <stop stop-color="#15CF74" offset="47.6%"></stop>
            <stop stop-color="#06E775" offset="80.1%"></stop>
            <stop stop-color="#00F076" offset="100%"></stop>
        </linearGradient>
    </defs>
    <g id="Design" stroke="none" stroke-width="1" fill="none" fill-rule="evenodd">
        <g id="Mobile-Landscape" transform="translate(-156.000000, -2690.000000)" fill-rule="nonzero">
            <g id="Group-11" transform="translate(16.000000, 2135.000000)">
                <g id="Group-9" transform="translate(0.000000, 64.000000)">
                    <g id="Group-3" transform="translate(0.000000, 49.000000)">
                        <g transform="translate(0.000000, 442.000000)" id="ic-google-play">
                            <g transform="translate(140.000000, 0.000000)">
                                <path d="M129.518427,39.9860049 L4.98147796,39.9860049 C2.1918503,39.9860049 0,37.7867746 0,34.9877543 L0,4.99825061 C0,2.19923027 2.1918503,0 4.98147796,0 L129.518427,0 C132.308055,0 134.499905,2.19923027 134.499905,4.99825061 L134.499905,34.9877543 C134.499905,37.7867746 132.308055,39.9860049 129.518427,39.9860049 Z" id="Path" fill="#000000"></path>
                                <path d="M47.2244111,10.1964312 C47.2244111,10.9961513 47.0251519,11.6959064 46.5270041,12.1957315 C45.9292268,12.7955216 45.2318199,13.0954166 44.3351538,13.0954166 C43.4384878,13.0954166 42.7410809,12.7955216 42.1433035,12.1957315 C41.5455262,11.5959414 41.2466375,10.8961863 41.2466375,9.99650122 C41.2466375,9.09681611 41.5455262,8.39706103 42.1433035,7.79727096 C42.7410809,7.19748088 43.4384878,6.89758584 44.3351538,6.89758584 C44.7336721,6.89758584 45.1321903,6.99755086 45.5307085,7.19748088 C45.9292268,7.39741091 46.2281155,7.59734093 46.4273746,7.89723597 L45.9292268,8.39706103 C45.5307085,7.89723597 45.0325608,7.69730594 44.3351538,7.69730594 C43.7373765,7.69730594 43.1395991,7.89723597 42.7410809,8.39706103 C42.2429331,8.79692108 42.043674,9.39671115 42.043674,10.0964662 C42.043674,10.7962213 42.2429331,11.3960114 42.7410809,11.7958714 C43.2392287,12.1957315 43.7373765,12.4956265 44.3351538,12.4956265 C45.0325608,12.4956265 45.5307085,12.2956965 46.0288563,11.7958714 C46.327745,11.4959764 46.5270041,11.0961164 46.5270041,10.5962913 L44.3351538,10.5962913 L44.3351538,9.7965712 L47.2244111,9.7965712 L47.2244111,10.1964312 L47.2244111,10.1964312 Z M51.8073708,7.69730594 L49.1173727,7.69730594 L49.1173727,9.59664118 L51.6081117,9.59664118 L51.6081117,10.2963963 L49.1173727,10.2963963 L49.1173727,12.1957315 L51.8073708,12.1957315 L51.8073708,12.9954516 L48.3203362,12.9954516 L48.3203362,6.99755086 L51.8073708,6.99755086 L51.8073708,7.69730594 Z M55.0951462,12.9954516 L54.2981098,12.9954516 L54.2981098,7.69730594 L52.6044072,7.69730594 L52.6044072,6.99755086 L56.7888487,6.99755086 L56.7888487,7.69730594 L55.0951462,7.69730594 L55.0951462,12.9954516 Z M59.678106,12.9954516 L59.678106,6.99755086 L60.4751424,6.99755086 L60.4751424,12.9954516 L59.678106,12.9954516 Z M63.8625474,12.9954516 L63.065511,12.9954516 L63.065511,7.69730594 L61.3718085,7.69730594 L61.3718085,6.99755086 L65.4566204,6.99755086 L65.4566204,7.69730594 L63.7629179,7.69730594 L63.7629179,12.9954516 L63.8625474,12.9954516 Z M73.3273556,12.1957315 C72.7295782,12.7955216 72.0321713,13.0954166 71.1355053,13.0954166 C70.2388392,13.0954166 69.5414323,12.7955216 68.943655,12.1957315 C68.3458776,11.5959414 68.0469889,10.8961863 68.0469889,9.99650122 C68.0469889,9.09681611 68.3458776,8.39706103 68.943655,7.79727096 C69.5414323,7.19748088 70.2388392,6.89758584 71.1355053,6.89758584 C72.0321713,6.89758584 72.7295782,7.19748088 73.3273556,7.79727096 C73.9251329,8.39706103 74.2240216,9.09681611 74.2240216,9.99650122 C74.2240216,10.8961863 73.9251329,11.5959414 73.3273556,12.1957315 Z M69.5414323,11.6959064 C69.9399505,12.0957665 70.5377279,12.3956615 71.1355053,12.3956615 C71.7332826,12.3956615 72.33106,12.1957315 72.7295782,11.6959064 C73.1280964,11.2960464 73.4269851,10.6962563 73.4269851,9.99650122 C73.4269851,9.29674614 73.227726,8.69695607 72.7295782,8.29709602 C72.33106,7.89723597 71.7332826,7.59734093 71.1355053,7.59734093 C70.5377279,7.59734093 69.9399505,7.79727096 69.5414323,8.29709602 C69.1429141,8.69695607 68.8440254,9.29674614 68.8440254,9.99650122 C68.8440254,10.6962563 69.0432845,11.2960464 69.5414323,11.6959064 Z M75.3199467,12.9954516 L75.3199467,6.99755086 L76.2166128,6.99755086 L79.10587,11.6959064 L79.10587,6.99755086 L79.9029065,6.99755086 L79.9029065,12.9954516 L79.10587,12.9954516 L76.0173537,8.09716599 L76.0173537,12.9954516 L75.3199467,12.9954516 L75.3199467,12.9954516 Z" id="Shape" fill="#FFFFFF"></path>
                                <path d="M67.8477298,21.7923727 C65.4566204,21.7923727 63.5636588,23.5917429 63.5636588,26.0908682 C63.5636588,28.4900285 65.4566204,30.3893637 67.8477298,30.3893637 C70.2388392,30.3893637 72.1318008,28.5899935 72.1318008,26.0908682 C72.1318008,23.4917779 70.2388392,21.7923727 67.8477298,21.7923727 Z M67.8477298,28.5899935 C66.5525455,28.5899935 65.4566204,27.4903784 65.4566204,25.9909032 C65.4566204,24.491428 66.5525455,23.3918129 67.8477298,23.3918129 C69.1429141,23.3918129 70.2388392,24.391463 70.2388392,25.9909032 C70.2388392,27.4903784 69.1429141,28.5899935 67.8477298,28.5899935 Z M58.5821808,21.7923727 C56.1910714,21.7923727 54.2981098,23.5917429 54.2981098,26.0908682 C54.2981098,28.4900285 56.1910714,30.3893637 58.5821808,30.3893637 C60.9732902,30.3893637 62.8662518,28.5899935 62.8662518,26.0908682 C62.8662518,23.4917779 60.9732902,21.7923727 58.5821808,21.7923727 Z M58.5821808,28.5899935 C57.2869965,28.5899935 56.1910714,27.4903784 56.1910714,25.9909032 C56.1910714,24.491428 57.2869965,23.3918129 58.5821808,23.3918129 C59.8773651,23.3918129 60.9732902,24.391463 60.9732902,25.9909032 C60.9732902,27.4903784 59.8773651,28.5899935 58.5821808,28.5899935 Z M47.5232997,23.0919178 L47.5232997,24.891288 L51.8073708,24.891288 C51.7077412,25.8909382 51.309223,26.6906583 50.8110752,27.1904833 C50.2132978,27.7902734 49.2170022,28.4900285 47.5232997,28.4900285 C44.8333016,28.4900285 42.8407104,26.3907632 42.8407104,23.6917079 C42.8407104,20.9926526 44.9329312,18.8933873 47.5232997,18.8933873 C48.9181136,18.8933873 50.0140387,19.4931774 50.8110752,20.1929325 L52.1062595,18.8933873 C51.0103343,17.8937372 49.6155205,17.0940171 47.6229293,17.0940171 C44.0362652,17.0940171 40.9477488,20.0929675 40.9477488,23.6917079 C40.9477488,27.2904483 44.0362652,30.2893987 47.6229293,30.2893987 C49.6155205,30.2893987 51.0103343,29.6896086 52.205889,28.3900635 C53.4014437,27.1904833 53.799962,25.4910781 53.799962,24.191533 C53.799962,23.7916729 53.799962,23.3918129 53.7003324,23.0919178 L47.5232997,23.0919178 L47.5232997,23.0919178 Z M92.7551196,24.491428 C92.3566014,23.4917779 91.3603058,21.7923727 89.1684555,21.7923727 C86.9766052,21.7923727 85.1832731,23.4917779 85.1832731,26.0908682 C85.1832731,28.4900285 86.9766052,30.3893637 89.3677146,30.3893637 C91.2606762,30.3893637 92.4562309,29.1897836 92.8547492,28.4900285 L91.4599353,27.4903784 C90.9617875,28.1901335 90.3640102,28.6899585 89.3677146,28.6899585 C88.371419,28.6899585 87.7736416,28.2900985 87.2754938,27.3904134 L92.9543787,24.9912531 L92.7551196,24.491428 L92.7551196,24.491428 Z M86.9766052,25.8909382 C86.9766052,24.291498 88.2717894,23.3918129 89.1684555,23.3918129 C89.8658624,23.3918129 90.5632693,23.7916729 90.7625284,24.291498 L86.9766052,25.8909382 Z M82.2940159,29.9895037 L84.1869775,29.9895037 L84.1869775,17.4938771 L82.2940159,17.4938771 L82.2940159,29.9895037 Z M79.3051291,22.6920578 C78.8069813,22.1922327 78.0099448,21.6924077 77.0136492,21.6924077 C74.9214285,21.6924077 72.9288373,23.5917429 72.9288373,25.9909032 C72.9288373,28.3900635 74.8217989,30.1894337 77.0136492,30.1894337 C78.0099448,30.1894337 78.8069813,29.6896086 79.2054996,29.1897836 L79.3051291,29.1897836 L79.3051291,29.7895736 C79.3051291,31.3890138 78.4084631,32.288699 77.0136492,32.288699 C75.9177241,32.288699 75.1206876,31.4889789 74.9214285,30.7892238 L73.3273556,31.4889789 C73.8255034,32.588594 75.0210581,33.9881042 77.1132788,33.9881042 C79.3051291,33.9881042 81.0984612,32.688559 81.0984612,29.5896436 L81.0984612,21.9923027 L79.3051291,21.9923027 L79.3051291,22.6920578 L79.3051291,22.6920578 Z M77.1132788,28.5899935 C75.8180945,28.5899935 74.7221694,27.4903784 74.7221694,25.9909032 C74.7221694,24.491428 75.8180945,23.3918129 77.1132788,23.3918129 C78.4084631,23.3918129 79.4047587,24.491428 79.4047587,25.9909032 C79.4047587,27.4903784 78.4084631,28.5899935 77.1132788,28.5899935 Z M101.422891,17.4938771 L96.9395611,17.4938771 L96.9395611,29.9895037 L98.8325227,29.9895037 L98.8325227,25.2911481 L101.422891,25.2911481 C103.515112,25.2911481 105.507703,23.7916729 105.507703,21.3925126 C105.507703,18.9933523 103.515112,17.4938771 101.422891,17.4938771 L101.422891,17.4938771 Z M101.522521,23.4917779 L98.8325227,23.4917779 L98.8325227,19.1932824 L101.522521,19.1932824 C102.917335,19.1932824 103.714371,20.3928625 103.714371,21.2925476 C103.614742,22.3921627 102.817705,23.4917779 101.522521,23.4917779 Z M112.97992,21.6924077 C111.585106,21.6924077 110.190292,22.2921977 109.692145,23.5917429 L111.385847,24.291498 C111.784365,23.5917429 112.382143,23.3918129 113.07955,23.3918129 C114.075845,23.3918129 114.972511,23.9916029 115.072141,24.9912531 L115.072141,25.0912181 C114.773252,24.891288 113.976216,24.591393 113.179179,24.591393 C111.385847,24.591393 109.592515,25.5910431 109.592515,27.3904134 C109.592515,29.0898186 111.086958,30.1894337 112.681031,30.1894337 C113.976216,30.1894337 114.573993,29.5896436 115.072141,28.9898536 L115.17177,28.9898536 L115.17177,29.9895037 L116.965102,29.9895037 L116.965102,25.1911831 C116.765843,22.9919528 115.072141,21.6924077 112.97992,21.6924077 L112.97992,21.6924077 Z M112.780661,28.5899935 C112.182884,28.5899935 111.286218,28.2900985 111.286218,27.4903784 C111.286218,26.4907282 112.382143,26.1908332 113.278809,26.1908332 C114.075845,26.1908332 114.474364,26.3907632 114.972511,26.5906933 C114.773252,27.7902734 113.776957,28.5899935 112.780661,28.5899935 L112.780661,28.5899935 Z M123.241765,21.9923027 L121.149544,27.3904134 L121.049914,27.3904134 L118.858064,21.9923027 L116.865473,21.9923027 L120.153248,29.5896436 L118.260287,33.7881741 L120.153248,33.7881741 L125.234356,21.9923027 L123.241765,21.9923027 L123.241765,21.9923027 Z M106.503999,29.9895037 L108.39696,29.9895037 L108.39696,17.4938771 L106.503999,17.4938771 L106.503999,29.9895037 Z" id="Shape" fill="#FFFFFF"></path>
                                <g id="Group" transform="translate(9.962956, 7.105513)">
                                    <path d="M0.398518237,0.391862848 C0.0996295592,0.691757885 -1.52908689e-15,1.19158295 -1.52908689e-15,1.79137302 L-1.52908689e-15,23.8836407 C-1.52908689e-15,24.4834308 0.199259118,24.9832559 0.498147796,25.2831509 L0.597777355,25.3831159 L12.9518427,12.9874544 L12.9518427,12.7875244 L0.398518237,0.391862848 Z" id="Path" fill="url(#linearGradient-1)"></path>
                                    <path d="M16.9370251,17.1859849 L12.8522131,13.0874194 L12.8522131,12.7875244 L16.9370251,8.68895886 L17.0366546,8.78892388 L21.918503,11.5879442 C23.3133168,12.3876643 23.3133168,13.6872095 21.918503,14.4869296 L16.9370251,17.1859849 L16.9370251,17.1859849 Z" id="Path" fill="url(#linearGradient-2)"></path>
                                    <path d="M17.0366546,17.0860199 L12.8522131,12.8874894 L0.398518237,25.3831159 C0.896666033,25.882941 1.59407295,25.882941 2.49073898,25.4830809 L17.0366546,17.0860199" id="Path" fill="url(#linearGradient-3)"></path>
                                    <path d="M17.0366546,8.68895886 L2.49073898,0.391862848 C1.59407295,-0.107962213 0.896666033,-0.00799720098 0.398518237,0.49182786 L12.8522131,12.8874894 L17.0366546,8.68895886 L17.0366546,8.68895886 Z" id="Path" fill="url(#linearGradient-4)"></path>
                                    <path d="M16.9370251,16.9860549 L2.49073898,25.1831859 C1.69370251,25.6830109 0.996295592,25.5830459 0.498147796,25.1831859 L0.398518237,25.2831509 L0.498147796,25.3831159 C0.996295592,25.782976 1.69370251,25.882941 2.49073898,25.3831159 L16.9370251,16.9860549 Z" id="Path" fill="#000000" opacity="0.2"></path>
                                    <path d="M0.398518237,25.1831859 C0.0996295592,24.8832908 -1.47357573e-15,24.3834658 -1.47357573e-15,23.7836757 L-1.47357573e-15,23.8836407 C-1.47357573e-15,24.4834308 0.199259118,24.9832559 0.498147796,25.2831509 L0.498147796,25.1831859 L0.398518237,25.1831859 Z M21.918503,14.1870345 L16.9370251,16.9860549 L17.0366546,17.0860199 L21.918503,14.2869996 C22.6159099,13.8871395 22.9147986,13.3873144 22.9147986,12.8874894 C22.9147986,13.3873144 22.5162804,13.7871745 21.918503,14.1870345 L21.918503,14.1870345 Z" id="Shape" fill="#000000" opacity="0.12"></path>
                                    <path d="M2.49073898,0.49182786 L21.918503,11.5879442 C22.5162804,11.9878043 22.9147986,12.3876643 22.9147986,12.8874894 C22.9147986,12.3876643 22.6159099,11.8878393 21.918503,11.4879792 L2.49073898,0.391862848 C1.09592515,-0.40785725 -1.52908689e-15,0.191932824 -1.52908689e-15,1.79137302 L-1.52908689e-15,1.89133803 C-1.52908689e-15,0.391862848 1.09592515,-0.307892238 2.49073898,0.49182786 Z" id="Path" fill="#FFFFFF" opacity="0.25"></path>
                                </g>
                            </g>
                        </g>
                    </g>
                </g>
            </g>
        </g>
    </g>
</svg>