<?xml version="1.0" encoding="UTF-8"?>
<svg width="18px" height="18px" viewBox="0 0 18 18" version="1.1" xmlns="http://www.w3.org/2000/svg" xmlns:xlink="http://www.w3.org/1999/xlink">
    <title>ic-dribbble</title>
    <g id="Design" stroke="none" stroke-width="1" fill="none" fill-rule="evenodd">
        <g id="Desktop---1440" transform="translate(-30.000000, -504.000000)" fill="#000000" fill-rule="nonzero">
            <g id="Socials" transform="translate(30.000000, 466.000000)">
                <g id="ic-dribbble" transform="translate(0.000000, 38.000000)">
                    <path d="M12.2655,17.3436257 C12.2805,17.3391345 12.29475,17.3331462 12.30975,17.3279064 C21.471,13.6952515 18.93675,0 9,0 C4.01325,0 0,4.05707602 0,8.98245614 C0,15.2155322 6.3255,19.663345 12.2655,17.3436257 Z M3.96075,15.014924 C4.59975,13.9430175 6.6675,10.918924 10.197,9.87546199 C10.935,11.7535439 11.4525,13.9445146 11.5035,16.4289123 C8.829,17.3264094 6.00825,16.7223392 3.96075,15.014924 Z M12.60975,15.9603275 C12.5115,13.5732398 12.02325,11.4563743 11.32725,9.62245614 C12.88875,9.37918129 14.69625,9.54161404 16.746,10.3612632 C16.31025,12.8022456 14.7465,14.8539883 12.60975,15.9603275 L12.60975,15.9603275 Z M16.86375,9.2002807 C14.60625,8.35368421 12.6165,8.24814035 10.8945,8.576 C10.62825,7.97716959 10.3485,7.40154386 10.05225,6.87157895 C12.6945,5.81838596 14.256,4.53464327 14.955,3.85497076 C16.18875,5.28018713 16.9215,7.12533333 16.86375,9.2002807 L16.86375,9.2002807 Z M14.15625,3.05553216 C13.52025,3.65960234 12.0225,4.8797193 9.46125,5.87752047 C8.20575,3.89539181 6.86325,2.49712281 6.01275,1.71415205 C8.73375,0.595836257 11.87175,1.07340351 14.15625,3.05553216 Z M4.93725,2.26283041 C5.57925,2.82647953 6.9885,4.17983626 8.34825,6.27274854 C6.48075,6.87307602 4.13925,7.31396491 1.2915,7.37609357 C1.7445,5.20982456 3.0975,3.37440936 4.93725,2.26283041 Z M1.149,8.50339181 C4.3365,8.45174269 6.9165,7.94947368 8.95575,7.26980117 C9.23775,7.76308772 9.5055,8.30053801 9.76275,8.85894737 C6.2115,9.98774269 3.99225,12.9018012 3.1425,14.217731 C1.7715,12.6907135 1.0155,10.6981053 1.149,8.50339181 Z" id="Shape"></path>
                </g>
            </g>
        </g>
    </g>
</svg>