<?xml version="1.0" encoding="UTF-8"?>
<svg width="18px" height="18px" viewBox="0 0 18 18" version="1.1" xmlns="http://www.w3.org/2000/svg" xmlns:xlink="http://www.w3.org/1999/xlink">
    <title>ic-instagram</title>
    <g id="Design" stroke="none" stroke-width="1" fill="none" fill-rule="evenodd">
        <g id="Desktop---1440" transform="translate(-30.000000, -466.000000)" fill="#000000" fill-rule="nonzero">
            <g id="Socials" transform="translate(30.000000, 466.000000)">
                <g id="ic-instagram">
                    <path d="M12.7713164,0 L5.22871875,0 C2.34558984,0 0,2.34558984 0,5.22871875 L0,12.7712813 C0,15.6544102 2.34558984,18 5.22871875,18 L12.7712813,18 C15.6544102,18 18,15.6544102 18,12.7713164 L18,5.22871875 C18,2.34558984 15.6544102,0 12.7713164,0 Z M16.59375,12.7712812 C16.59375,14.8790039 14.8790039,16.59375 12.7713164,16.59375 L5.22871875,16.59375 C3.12099609,16.59375 1.40625,14.8790039 1.40625,12.7713164 L1.40625,5.22871875 C1.40625,3.12099609 3.12099609,1.40625 5.22871875,1.40625 L12.7712813,1.40625 C14.8790039,1.40625 16.59375,3.12099609 16.59375,5.22871875 L16.59375,12.7712812 Z" id="Shape"></path>
                    <path d="M9,4.1484375 C6.32482031,4.1484375 4.1484375,6.32482031 4.1484375,9 C4.1484375,11.6751797 6.32482031,13.8515625 9,13.8515625 C11.6751797,13.8515625 13.8515625,11.6751797 13.8515625,9 C13.8515625,6.32482031 11.6751797,4.1484375 9,4.1484375 Z M9,12.4453125 C7.10026172,12.4453125 5.5546875,10.8997383 5.5546875,9 C5.5546875,7.10026172 7.10026172,5.5546875 9,5.5546875 C10.8997383,5.5546875 12.4453125,7.10026172 12.4453125,9 C12.4453125,10.8997383 10.8997383,12.4453125 9,12.4453125 Z" id="Shape"></path>
                    <circle id="Oval" cx="13.921875" cy="4.078125" r="1"></circle>
                </g>
            </g>
        </g>
    </g>
</svg>