<?xml version="1.0" encoding="UTF-8"?>
<svg width="16px" height="16px" viewBox="0 0 16 16" version="1.1" xmlns="http://www.w3.org/2000/svg" xmlns:xlink="http://www.w3.org/1999/xlink">
    <title>ic-linkedin</title>
    <g id="Design" stroke="none" stroke-width="1" fill="none" fill-rule="evenodd">
        <g id="Desktop---1440" transform="translate(-31.000000, -542.000000)" fill="#000000" fill-rule="nonzero">
            <g id="Socials" transform="translate(30.000000, 466.000000)">
                <g id="ic-linkedin" transform="translate(1.000000, 76.000000)">
                    <path d="M15.996,16 L15.996,15.9993333 L16,15.9993333 L16,10.1313333 C16,7.26066667 15.382,5.04933333 12.026,5.04933333 C10.4126667,5.04933333 9.33,5.93466667 8.888,6.774 L8.84133333,6.774 L8.84133333,5.31733333 L5.65933333,5.31733333 L5.65933333,15.9993333 L8.97266667,15.9993333 L8.97266667,10.71 C8.97266667,9.31733333 9.23666667,7.97066667 10.9613333,7.97066667 C12.6606667,7.97066667 12.686,9.56 12.686,10.7993333 L12.686,16 L15.996,16 Z" id="Path"></path>
                    <polygon id="Path" points="0.264 5.318 3.58133333 5.318 3.58133333 16 0.264 16"></polygon>
                    <path d="M1.92133333,0 C0.860666667,0 0,0.860666667 0,1.92133333 C0,2.982 0.860666667,3.86066667 1.92133333,3.86066667 C2.982,3.86066667 3.84266667,2.982 3.84266667,1.92133333 C3.842,0.860666667 2.98133333,0 1.92133333,0 Z" id="Path"></path>
                </g>
            </g>
        </g>
    </g>
</svg>