<?xml version="1.0" encoding="UTF-8"?>
<svg width="90px" height="90px" viewBox="0 0 90 90" version="1.1" xmlns="http://www.w3.org/2000/svg" xmlns:xlink="http://www.w3.org/1999/xlink">
    <title>ic-process-requirement</title>
    <g id="Design" stroke="none" stroke-width="1" fill="none" fill-rule="evenodd">
        <g id="Desktop---1440" transform="translate(-170.000000, -1248.000000)">
            <g id="Our-development-process" transform="translate(170.000000, 1165.000000)">
                <g id="1" transform="translate(0.000000, 83.000000)">
                    <g id="ic-process-requirement">
                        <g id="Group-21" transform="translate(0.000000, 10.000000)">
                            <rect id="Rectangle" fill="#2EA28C" x="0" y="0" width="80" height="80" rx="20"></rect>
                            <g id="ic-process-requirement" transform="translate(20.000000, 20.000000)">
                                <g id="ic-requirements-copy">
                                    <rect id="Rectangle" x="0" y="0" width="40" height="40"></rect>
                                    <g id="icons8-important_property" transform="translate(6.000000, 7.000000)" fill="#FFFFFF" fill-rule="nonzero">
                                        <path d="M2,0 C0.895,0 0,0.895 0,2 L0,6 L0,22 L12.523438,22 C12.297438,21.362 12.135594,20.695 12.058594,20 L2,20 L2,6 L24,6 L24,10.523438 C24.711,10.775438 25.384,11.104578 26,11.517578 L26,3 L26,2 C26,0.895 25.105,0 24,0 L2,0 Z M6,9 C5.44771525,9 5,9.44771525 5,10 C5,10.5522847 5.44771525,11 6,11 C6.55228475,11 7,10.5522847 7,10 C7,9.44771525 6.55228475,9 6,9 Z M10,9 C9.448,9 9,9.448 9,10 C9,10.552 9.448,11 10,11 L16.888672,11 C17.836672,10.512 18.881281,10.185547 19.988281,10.060547 C19.989281,10.039547 20,10.021 20,10 C20,9.448 19.552,9 19,9 L10,9 Z M21,12 C17.134,12 14,15.134 14,19 C14,22.866 17.134,26 21,26 C24.866,26 28,22.866 28,19 C28,15.134 24.866,12 21,12 Z M6,13 C5.44771525,13 5,13.4477153 5,14 C5,14.5522847 5.44771525,15 6,15 C6.55228475,15 7,14.5522847 7,14 C7,13.4477153 6.55228475,13 6,13 Z M10,13 C9.448,13 9,13.448 9,14 C9,14.552 9.448,15 10,15 L12.947266,15 C13.310266,14.271 13.767641,13.6 14.306641,13 L10,13 Z M20,15 L22,15 L21.835938,21 L20.166016,21 L20,15 Z M21,22 C21.552,22 22,22.448 22,23 C22,23.552 21.552,24 21,24 C20.448,24 20,23.552 20,23 C20,22.448 20.448,22 21,22 Z" id="Shape"></path>
                                    </g>
                                </g>
                            </g>
                        </g>
                        <g id="Group" transform="translate(50.000000, 0.000000)">
                            <rect id="Rectangle" stroke="#FFFFFF" stroke-width="3" fill="#FFFFFF" x="1.5" y="1.5" width="37" height="37" rx="18.5"></rect>
                            <path d="M21.89,28 C21.9566667,28 22.0133333,27.9766667 22.06,27.93 C22.1066667,27.8833333 22.13,27.8266667 22.13,27.76 L22.13,27.76 L22.13,14.24 C22.13,14.1733333 22.1066667,14.1166667 22.06,14.07 C22.0133333,14.0233333 21.9566667,14 21.89,14 L21.89,14 L19.97,14 C19.8766667,14 19.7766667,14.02 19.67,14.06 L19.67,14.06 L17.51,15.14 C17.4033333,15.1933333 17.35,15.2866667 17.35,15.42 L17.35,15.42 L17.41,16.74 C17.41,16.8066667 17.4266667,16.86 17.46,16.9 C17.4933333,16.94 17.5366667,16.96 17.59,16.96 C17.63,16.96 17.6633333,16.9533333 17.69,16.94 L17.69,16.94 L19.69,16.32 C19.7166667,16.3066667 19.7433333,16.31 19.77,16.33 C19.7966667,16.35 19.81,16.3733333 19.81,16.4 L19.81,16.4 L19.81,27.76 C19.81,27.8266667 19.8333333,27.8833333 19.88,27.93 C19.9266667,27.9766667 19.9833333,28 20.05,28 L20.05,28 L21.89,28 Z" id="1" fill="#2EA28C" fill-rule="nonzero"></path>
                        </g>
                    </g>
                </g>
            </g>
        </g>
    </g>
</svg>