<?xml version="1.0" encoding="UTF-8"?>
<svg width="90px" height="90px" viewBox="0 0 90 90" version="1.1" xmlns="http://www.w3.org/2000/svg" xmlns:xlink="http://www.w3.org/1999/xlink">
    <title>ic-process-planning</title>
    <g id="Design" stroke="none" stroke-width="1" fill="none" fill-rule="evenodd">
        <g id="Desktop---1440" transform="translate(-170.000000, -1546.000000)">
            <g id="Our-development-process" transform="translate(170.000000, 1165.000000)">
                <g id="3" transform="translate(0.000000, 381.000000)">
                    <g id="ic-process-planning">
                        <g id="Group-21" transform="translate(0.000000, 10.000000)">
                            <rect id="Rectangle" fill="#F8936C" x="0" y="0" width="80" height="80" rx="20"></rect>
                            <g id="ic-process-planning" transform="translate(20.000000, 20.000000)">
                                <g id="ic-sprint-planning-copy">
                                    <rect id="Rectangle" x="0" y="0" width="40" height="40"></rect>
                                    <g id="icons8-tiles" transform="translate(7.000000, 11.000000)" fill="#FFFFFF" fill-rule="nonzero">
                                        <path d="M0.962962963,0 C0.431407407,0 0,0.424421053 0,0.947368421 L0,6.63157895 C0,7.15452632 0.431407407,7.57894737 0.962962963,7.57894737 L6.74074074,7.57894737 C7.2722963,7.57894737 7.7037037,7.15452632 7.7037037,6.63157895 L7.7037037,0.947368421 C7.7037037,0.424421053 7.2722963,0 6.74074074,0 L0.962962963,0 Z M11.5555556,0.947368421 C11.2082765,0.942536568 10.885255,1.12203975 10.7101822,1.4171427 C10.5351094,1.71224565 10.5351094,2.07722804 10.7101822,2.37233098 C10.885255,2.66743393 11.2082765,2.84693712 11.5555556,2.84210526 L24.0740741,2.84210526 C24.4213531,2.84693712 24.7443746,2.66743393 24.9194474,2.37233098 C25.0945202,2.07722804 25.0945202,1.71224565 24.9194474,1.4171427 C24.7443746,1.12203975 24.4213531,0.942536568 24.0740741,0.947368421 L11.5555556,0.947368421 Z M3.85185185,1.89473684 C4.91592593,1.89473684 5.77777778,2.74263158 5.77777778,3.78947368 C5.77777778,4.83536842 4.91592593,5.68421053 3.85185185,5.68421053 C2.78777778,5.68421053 1.92592593,4.83536842 1.92592593,3.78947368 C1.92592593,2.74263158 2.78777778,1.89473684 3.85185185,1.89473684 Z M11.5555556,4.73684211 C11.2082765,4.73201025 10.885255,4.91151344 10.7101822,5.20661638 C10.5351094,5.50171933 10.5351094,5.86670172 10.7101822,6.16180467 C10.885255,6.45690761 11.2082765,6.6364108 11.5555556,6.63157895 L20.2222222,6.63157895 C20.5695013,6.6364108 20.8925228,6.45690761 21.0675956,6.16180467 C21.2426684,5.86670172 21.2426684,5.50171933 21.0675956,5.20661638 C20.8925228,4.91151344 20.5695013,4.73201025 20.2222222,4.73684211 L11.5555556,4.73684211 Z M0.962962963,10.4210526 C0.431407407,10.4210526 0,10.8454737 0,11.3684211 L0,17.0526316 C0,17.5755789 0.431407407,18 0.962962963,18 L6.74074074,18 C7.2722963,18 7.7037037,17.5755789 7.7037037,17.0526316 L7.7037037,11.3684211 C7.7037037,10.8454737 7.2722963,10.4210526 6.74074074,10.4210526 L0.962962963,10.4210526 Z M11.5555556,11.3684211 C11.2082765,11.3635892 10.885255,11.5430924 10.7101822,11.8381953 C10.5351094,12.1332983 10.5351094,12.4982807 10.7101822,12.7933836 C10.885255,13.0884866 11.2082765,13.2679897 11.5555556,13.2631579 L24.0740741,13.2631579 C24.4213531,13.2679897 24.7443746,13.0884866 24.9194474,12.7933836 C25.0945202,12.4982807 25.0945202,12.1332983 24.9194474,11.8381953 C24.7443746,11.5430924 24.4213531,11.3635892 24.0740741,11.3684211 L11.5555556,11.3684211 Z M1.92592593,12.3157895 L5.77777778,12.3157895 L5.77777778,16.1052632 L1.92592593,16.1052632 L1.92592593,12.3157895 Z M11.5555556,15.1578947 C11.2082765,15.1530629 10.885255,15.3325661 10.7101822,15.627669 C10.5351094,15.922772 10.5351094,16.2877544 10.7101822,16.5828573 C10.885255,16.8779602 11.2082765,17.0574634 11.5555556,17.0526316 L20.2222222,17.0526316 C20.5695013,17.0574634 20.8925228,16.8779602 21.0675956,16.5828573 C21.2426684,16.2877544 21.2426684,15.922772 21.0675956,15.627669 C20.8925228,15.3325661 20.5695013,15.1530629 20.2222222,15.1578947 L11.5555556,15.1578947 Z" id="Shape"></path>
                                    </g>
                                </g>
                            </g>
                        </g>
                        <g id="Group" transform="translate(50.000000, 0.000000)">
                            <rect id="Rectangle" stroke="#FFFFFF" stroke-width="3" fill="#FFFFFF" x="1.5" y="1.5" width="37" height="37" rx="18.5"></rect>
                            <path d="M19.87,28.16 C20.87,28.16 21.7233333,27.93 22.43,27.47 C23.1366667,27.01 23.6433333,26.36 23.95,25.52 C24.1766667,24.9466667 24.29,24.2866667 24.29,23.54 C24.29,22.7133333 24.1566667,21.98 23.89,21.34 C23.37,20.14 22.49,19.4533333 21.25,19.28 C21.1433333,19.2533333 21.1166667,19.2133333 21.17,19.16 L21.17,19.16 L24.03,16.28 C24.11,16.2 24.15,16.1 24.15,15.98 L24.15,15.98 L24.15,14.24 C24.15,14.1733333 24.1266667,14.1166667 24.08,14.07 C24.0333333,14.0233333 23.9766667,14 23.91,14 L23.91,14 L15.93,14 C15.8633333,14 15.8066667,14.0233333 15.76,14.07 C15.7133333,14.1166667 15.69,14.1733333 15.69,14.24 L15.69,14.24 L15.69,15.76 C15.69,15.8266667 15.7133333,15.8833333 15.76,15.93 C15.8066667,15.9766667 15.8633333,16 15.93,16 L15.93,16 L20.93,16 C20.97,16 20.9966667,16.0133333 21.01,16.04 C21.0233333,16.0666667 21.0166667,16.0933333 20.99,16.12 L20.99,16.12 L17.69,19.36 C17.6366667,19.4133333 17.61,19.4733333 17.61,19.54 C17.61,19.58 17.63,19.6333333 17.67,19.7 L17.67,19.7 L18.59,20.98 C18.6566667,21.06 18.7233333,21.1 18.79,21.1 C18.83,21.1 18.8766667,21.0866667 18.93,21.06 C19.3166667,20.7933333 19.6233333,20.66 19.85,20.66 C20.7033333,20.66 21.3033333,21.0333333 21.65,21.78 C21.85,22.22 21.95,22.78 21.95,23.46 C21.95,24.0733333 21.8633333,24.5733333 21.69,24.96 C21.3566667,25.76 20.75,26.16 19.87,26.16 C19.4033333,26.16 19.0066667,26.0366667 18.68,25.79 C18.3533333,25.5433333 18.13,25.2066667 18.01,24.78 C17.9033333,24.5266667 17.8366667,24.1866667 17.81,23.76 C17.81,23.6 17.73,23.52 17.57,23.52 L17.57,23.52 L15.71,23.52 C15.55,23.52 15.47,23.6 15.47,23.76 C15.4966667,24.4266667 15.59,24.9666667 15.75,25.38 C16.0566667,26.2333333 16.5733333,26.91 17.3,27.41 C18.0266667,27.91 18.8833333,28.16 19.87,28.16 Z" id="3" fill="#F7926B" fill-rule="nonzero"></path>
                        </g>
                    </g>
                </g>
            </g>
        </g>
    </g>
</svg>