<?xml version="1.0" encoding="UTF-8"?>
<svg width="90px" height="90px" viewBox="0 0 90 90" version="1.1" xmlns="http://www.w3.org/2000/svg" xmlns:xlink="http://www.w3.org/1999/xlink">
    <title>ic-process-development</title>
    <g id="Design" stroke="none" stroke-width="1" fill="none" fill-rule="evenodd">
        <g id="Desktop---1440" transform="translate(-740.000000, -1546.000000)">
            <g id="Our-development-process" transform="translate(170.000000, 1165.000000)">
                <g id="4" transform="translate(570.000000, 381.000000)">
                    <g id="ic-process-development">
                        <g id="Group-21" transform="translate(0.000000, 10.000000)">
                            <rect id="Rectangle" fill="#C14463" x="0" y="0" width="80" height="80" rx="20"></rect>
                            <g id="ic-process-development" transform="translate(20.000000, 20.000000)">
                                <g id="ic-incremental-release-copy">
                                    <rect id="Rectangle" x="0" y="0" width="40" height="40"></rect>
                                    <g id="icons8-code" transform="translate(7.000000, 9.000000)" fill="#FFFFFF" fill-rule="nonzero">
                                        <path d="M2,0 C0.895,0 0,0.895 0,2 L0,6 L0,22 L26,22 L26,4 L26,2 C26,0.895 25.105,0 24,0 L2,0 Z M2,6 L24,6 L24,20 L2,20 L2,6 Z M14.033203,7.986328 C13.5576636,7.97197123 13.1378349,8.2946022 13.029297,8.757812 L11.029297,16.757812 C10.9426648,17.1046489 11.0476831,17.4713555 11.3047803,17.7197545 C11.5618775,17.9681534 11.9319802,18.0604931 12.2756312,17.9619794 C12.6192823,17.8634657 12.8842539,17.5890706 12.970703,17.242188 L14.970703,9.242188 C15.0489105,8.9470695 14.9880314,8.63239185 14.8053966,8.38773723 C14.6227618,8.1430826 14.3383779,7.99525137 14.033203,7.986328 Z M7.9804688,8.988281 C7.65085296,8.99736529 7.34689785,9.16833994 7.1679688,9.445312 L4.7988281,13 L7.1679688,16.554688 C7.36350486,16.8581884 7.70744053,17.0327399 8.06784426,17.0113855 C8.42824799,16.9900312 8.74916478,16.7760864 8.90749299,16.4516191 C9.0658212,16.1271518 9.03697935,15.7425376 8.832031,15.445312 L7.2011719,13 L8.832031,10.554688 C9.04528959,10.2445742 9.0663881,9.84099165 8.88662791,9.51033158 C8.70686773,9.17967152 8.35669034,8.97792957 7.9804688,8.988281 Z M17.988281,8.98827322 C17.6176642,8.98976267 17.2782551,9.19607977 17.1063157,9.52440257 C16.9343762,9.85272537 16.9581024,10.2492129 17.167969,10.554688 L18.798828,13 L17.167969,15.445312 C16.9630183,15.7425375 16.934175,16.1271531 17.0925032,16.4516219 C17.2508313,16.7760906 17.5717494,16.9900362 17.9321544,17.01139 C18.2925594,17.0327438 18.6364958,16.8581905 18.832031,16.554688 L21.201172,13 L18.832031,9.445312 C18.6470038,9.15917831 18.329024,8.98693934 17.988281,8.98827322 L17.988281,8.98827322 Z" id="Shape"></path>
                                    </g>
                                </g>
                            </g>
                        </g>
                        <g id="Group" transform="translate(50.000000, 0.000000)">
                            <rect id="Rectangle" stroke="#FFFFFF" stroke-width="3" fill="#FFFFFF" x="1.5" y="1.5" width="37" height="37" rx="18.5"></rect>
                            <path d="M23.41,28 C23.4766667,28 23.5333333,27.9766667 23.58,27.93 C23.6266667,27.8833333 23.65,27.8266667 23.65,27.76 L23.65,27.76 L23.65,24.42 C23.65,24.3533333 23.6833333,24.32 23.75,24.32 L23.75,24.32 L24.59,24.32 C24.6566667,24.32 24.7133333,24.2966667 24.76,24.25 C24.8066667,24.2033333 24.83,24.1466667 24.83,24.08 L24.83,24.08 L24.83,22.48 C24.83,22.4133333 24.8066667,22.3566667 24.76,22.31 C24.7133333,22.2633333 24.6566667,22.24 24.59,22.24 L24.59,22.24 L23.75,22.24 C23.6833333,22.24 23.65,22.2066667 23.65,22.14 L23.65,22.14 L23.65,19.42 C23.65,19.3533333 23.6266667,19.2966667 23.58,19.25 C23.5333333,19.2033333 23.4766667,19.18 23.41,19.18 L23.41,19.18 L21.57,19.18 C21.5033333,19.18 21.4466667,19.2033333 21.4,19.25 C21.3533333,19.2966667 21.33,19.3533333 21.33,19.42 L21.33,19.42 L21.33,22.14 C21.33,22.2066667 21.2966667,22.24 21.23,22.24 L21.23,22.24 L17.67,22.24 C17.6433333,22.24 17.6233333,22.2266667 17.61,22.2 C17.5966667,22.1733333 17.5966667,22.1466667 17.61,22.12 L17.61,22.12 L21.17,14.28 C21.21,14.1866667 21.2133333,14.1166667 21.18,14.07 C21.1466667,14.0233333 21.0833333,14 20.99,14 L20.99,14 L19.03,14 C18.8966667,14 18.8033333,14.06 18.75,14.18 L18.75,14.18 L14.97,22.5 C14.93,22.62 14.91,22.72 14.91,22.8 L14.91,22.8 L14.91,24.08 C14.91,24.1466667 14.9333333,24.2033333 14.98,24.25 C15.0266667,24.2966667 15.0833333,24.32 15.15,24.32 L15.15,24.32 L21.23,24.32 C21.2966667,24.32 21.33,24.3533333 21.33,24.42 L21.33,24.42 L21.33,27.76 C21.33,27.8266667 21.3533333,27.8833333 21.4,27.93 C21.4466667,27.9766667 21.5033333,28 21.57,28 L21.57,28 L23.41,28 Z" id="4" fill="#C14463" fill-rule="nonzero"></path>
                        </g>
                    </g>
                </g>
            </g>
        </g>
    </g>
</svg>