<?xml version="1.0" encoding="UTF-8"?>
<svg width="90px" height="90px" viewBox="0 0 90 90" version="1.1" xmlns="http://www.w3.org/2000/svg" xmlns:xlink="http://www.w3.org/1999/xlink">
    <title>ic-process-release</title>
    <g id="Design" stroke="none" stroke-width="1" fill="none" fill-rule="evenodd">
        <g id="Desktop---1440" transform="translate(-740.000000, -1844.000000)">
            <g id="Our-development-process" transform="translate(170.000000, 1165.000000)">
                <g id="6" transform="translate(570.000000, 679.000000)">
                    <g id="ic-process-release">
                        <g id="Group-21" transform="translate(0.000000, 10.000000)">
                            <rect id="Rectangle" fill="#0091FF" x="0" y="0" width="80" height="80" rx="20"></rect>
                            <g id="ic-process-release" transform="translate(20.000000, 20.000000)">
                                <g id="ic-final-release-copy">
                                    <rect id="Rectangle" x="0" y="0" width="40" height="40"></rect>
                                    <g id="icons8-rocket" transform="translate(8.000000, 8.000000)" fill="#FFFFFF" fill-rule="nonzero">
                                        <path d="M23.9785164,0.0214836003 C23.9785164,0.0214836003 15,-6.55725474e-16 8,7 C7.676811,7.323189 7.395406,7.675024 7.140625,8.039062 C5.8995439,7.939831 3.9997651,7.972248 3.0273438,8.945312 C0.7573437,11.215312 0,15 0,15 L5,14.285156 L5,16 L8,19 L9.714844,19 L9,24 C9,24 12.784688,23.242656 15.054688,20.972656 C16.027752,20.000235 16.060169,18.100456 15.960938,16.859375 C16.324976,16.604594 16.676811,16.323189 17,16 C24,9 23.9785164,0.0214836003 23.9785164,0.0214836003 Z M16,6 C17.105,6 18,6.895 18,8 C18,9.105 17.105,10 16,10 C14.895,10 14,9.105 14,8 C14,6.895 14.895,6 16,6 Z M4.1992188,16.996094 C3.8192188,17.096094 3.4591094,17.286984 3.1621094,17.583984 C1.7961094,18.949984 2.0136719,21.984375 2.0136719,21.984375 C2.0136719,21.984375 5.0281094,22.219938 6.4121094,20.835938 C6.7091094,20.538937 6.9,20.176875 7,19.796875 L6.5429688,19.339844 C6.4979688,19.403844 6.4701094,19.478156 6.4121094,19.535156 C5.4371094,20.510156 3.9746094,20.023438 3.9746094,20.023438 C3.9746094,20.023438 3.4868906,18.560938 4.4628906,17.585938 C4.5208906,17.527938 4.59225,17.501078 4.65625,17.455078 L4.1992188,16.996094 Z" id="Shape"></path>
                                    </g>
                                </g>
                            </g>
                        </g>
                        <g id="Group" transform="translate(50.000000, 0.000000)">
                            <rect id="Rectangle" stroke="#FFFFFF" stroke-width="3" fill="#FFFFFF" x="1.5" y="1.5" width="37" height="37" rx="18.5"></rect>
                            <path d="M20.13,28.14 C21.09,28.14 21.9133333,27.93 22.6,27.51 C23.2866667,27.09 23.79,26.4933333 24.11,25.72 C24.3766667,25.1066667 24.51,24.3933333 24.51,23.58 C24.51,22.6066667 24.33,21.78 23.97,21.1 C23.6233333,20.4733333 23.1533333,19.9933333 22.56,19.66 C21.9666667,19.3266667 21.2766667,19.16 20.49,19.16 C19.5033333,19.16 18.73,19.4333333 18.17,19.98 C18.1433333,20.0066667 18.1166667,20.0133333 18.09,20 C18.0633333,19.9866667 18.05,19.96 18.05,19.92 L18.05,19.92 L18.05,17.74 C18.05,17.18 18.2333333,16.7233333 18.6,16.37 C18.9666667,16.0166667 19.43,15.84 19.99,15.84 C20.5366667,15.84 20.9866667,16.01 21.34,16.35 C21.6933333,16.69 21.87,17.1266667 21.87,17.66 L21.87,17.66 L21.87,17.8 C21.87,17.8666667 21.8933333,17.9233333 21.94,17.97 C21.9866667,18.0166667 22.0433333,18.04 22.11,18.04 L22.11,18.04 L23.95,18.04 C24.0166667,18.04 24.0733333,18.0166667 24.12,17.97 C24.1666667,17.9233333 24.19,17.8666667 24.19,17.8 L24.19,17.8 L24.19,17.36 C24.19,16.6666667 24.0133333,16.0533333 23.66,15.52 C23.3066667,14.9866667 22.8133333,14.5733333 22.18,14.28 C21.5466667,13.9866667 20.8233333,13.84 20.01,13.84 C19.17,13.84 18.4266667,13.99 17.78,14.29 C17.1333333,14.59 16.63,15.0133333 16.27,15.56 C15.91,16.1066667 15.73,16.74 15.73,17.46 L15.73,17.46 L15.73,23.56 C15.73,24.3066667 15.8366667,24.96 16.05,25.52 C16.3566667,26.3466667 16.8633333,26.99 17.57,27.45 C18.2766667,27.91 19.13,28.14 20.13,28.14 Z M20.11,26.12 C19.23,26.12 18.63,25.7533333 18.31,25.02 C18.1366667,24.6733333 18.05,24.2266667 18.05,23.68 C18.05,23.04 18.15,22.52 18.35,22.12 C18.6966667,21.4533333 19.2833333,21.12 20.11,21.12 C20.8966667,21.12 21.4766667,21.44 21.85,22.08 C22.0766667,22.5066667 22.19,23.02 22.19,23.62 C22.19,24.1666667 22.09,24.64 21.89,25.04 C21.5433333,25.76 20.95,26.12 20.11,26.12 Z" id="6" fill="#0091FF" fill-rule="nonzero"></path>
                        </g>
                    </g>
                </g>
            </g>
        </g>
    </g>
</svg>