<?xml version="1.0" encoding="UTF-8"?>
<svg width="90px" height="90px" viewBox="0 0 90 90" version="1.1" xmlns="http://www.w3.org/2000/svg" xmlns:xlink="http://www.w3.org/1999/xlink">
    <title>ic-process-design</title>
    <g id="Design" stroke="none" stroke-width="1" fill="none" fill-rule="evenodd">
        <g id="Desktop---1440" transform="translate(-740.000000, -1248.000000)">
            <g id="Our-development-process" transform="translate(170.000000, 1165.000000)">
                <g id="2" transform="translate(570.000000, 83.000000)">
                    <g id="ic-process-design">
                        <g id="Group-21" transform="translate(0.000000, 10.000000)">
                            <rect id="Rectangle" fill="#4E5CDF" x="0" y="0" width="80" height="80" rx="20"></rect>
                            <g id="ic-process-design" transform="translate(20.000000, 20.000000)">
                                <g id="ic-ui-design-copy">
                                    <rect id="Rectangle" x="0" y="0" width="40" height="40"></rect>
                                    <g id="icons8-prototype" transform="translate(9.000000, 9.000000)" fill="#FFFFFF" fill-rule="nonzero">
                                        <path d="M2,0 C0.895,0 0,0.895 0,2 L0,4 L22,4 L22,2 C22,0.895 21.105,0 20,0 L2,0 Z M0,6 L0,20 C0,21.105 0.895,22 2,22 L14,22 L14,6 L0,6 Z M16,6 L16,10 L22,10 L22,6 L16,6 Z M16,12 L16,16 L22,16 L22,12 L16,12 Z M16,18 L16,22 L20,22 C21.105,22 22,21.105 22,20 L22,18 L16,18 Z" id="Shape"></path>
                                    </g>
                                </g>
                            </g>
                        </g>
                        <g id="Group" transform="translate(50.000000, 0.000000)">
                            <rect id="Rectangle" fill="#FFFFFF" x="0" y="0" width="40" height="40" rx="20"></rect>
                            <path d="M24.33,28 C24.3966667,28 24.4533333,27.9766667 24.5,27.93 C24.5466667,27.8833333 24.57,27.8266667 24.57,27.76 L24.57,27.76 L24.57,26.24 C24.57,26.1733333 24.5466667,26.1166667 24.5,26.07 C24.4533333,26.0233333 24.3966667,26 24.33,26 L24.33,26 L18.63,26 C18.59,26 18.5666667,25.9866667 18.56,25.96 C18.5533333,25.9333333 18.5633333,25.9066667 18.59,25.88 L18.59,25.88 L19.35,25.04 C20.8166667,23.44 21.87,22.24 22.51,21.44 C23.67,20.0133333 24.25,18.7533333 24.25,17.66 C24.25,16.94 24.07,16.29 23.71,15.71 C23.35,15.13 22.8366667,14.6733333 22.17,14.34 C21.5033333,14.0066667 20.7233333,13.84 19.83,13.84 C19.0166667,13.84 18.28,13.9866667 17.62,14.28 C16.96,14.5733333 16.4366667,14.9866667 16.05,15.52 C15.6633333,16.0533333 15.4566667,16.68 15.43,17.4 L15.43,17.4 L15.43,18.26 C15.43,18.3266667 15.4533333,18.3833333 15.5,18.43 C15.5466667,18.4766667 15.6033333,18.5 15.67,18.5 L15.67,18.5 L17.53,18.5 C17.5966667,18.5 17.6533333,18.4766667 17.7,18.43 C17.7466667,18.3833333 17.77,18.3266667 17.77,18.26 L17.77,18.26 L17.77,17.74 C17.77,17.1666667 17.96,16.7066667 18.34,16.36 C18.72,16.0133333 19.2166667,15.84 19.83,15.84 C20.4433333,15.84 20.9433333,16.0133333 21.33,16.36 C21.7166667,16.7066667 21.91,17.1533333 21.91,17.7 C21.91,18.4333333 21.2966667,19.5133333 20.07,20.94 L20.07,20.94 L19.13,22.04 C17.7966667,23.6133333 16.6233333,24.94 15.61,26.02 C15.53,26.1 15.49,26.2 15.49,26.32 L15.49,26.32 L15.49,27.76 C15.49,27.8266667 15.5133333,27.8833333 15.56,27.93 C15.6066667,27.9766667 15.6633333,28 15.73,28 L15.73,28 L24.33,28 Z" id="2" fill="#4E5CDF" fill-rule="nonzero"></path>
                        </g>
                    </g>
                </g>
            </g>
        </g>
    </g>
</svg>