<?xml version="1.0" standalone="no"?>
<!DOCTYPE svg PUBLIC "-//W3C//DTD SVG 20010904//EN"
 "http://www.w3.org/TR/2001/REC-SVG-20010904/DTD/svg10.dtd">
<svg version="1.0" xmlns="http://www.w3.org/2000/svg"
 width="548.000000pt" height="548.000000pt" viewBox="0 0 548.000000 548.000000"
 preserveAspectRatio="xMidYMid meet">
<metadata>
Created by potrace 1.14, written by Peter Selinger 2001-2017
</metadata>
<g transform="translate(0.000000,548.000000) scale(0.100000,-0.100000)"
fill="#000000" stroke="none">
<path d="M2696 5442 c-2 -1 -46 -5 -99 -8 -52 -2 -106 -7 -119 -9 -13 -3 -43
-7 -68 -10 -25 -3 -54 -8 -66 -10 -12 -3 -39 -7 -60 -10 -21 -4 -57 -11 -79
-17 -22 -6 -53 -12 -69 -15 -36 -6 -261 -78 -312 -100 -21 -9 -44 -17 -50 -19
-21 -4 -209 -98 -282 -141 -41 -24 -77 -43 -82 -43 -5 0 -10 -3 -12 -7 -1 -5
-28 -24 -58 -44 -139 -91 -354 -281 -494 -438 -89 -99 -266 -340 -266 -361 0
-5 -3 -10 -7 -12 -20 -8 -154 -279 -207 -418 -31 -80 -76 -219 -91 -283 -2
-10 -6 -26 -9 -35 -5 -16 -9 -37 -21 -99 -3 -16 -8 -41 -12 -58 -3 -16 -7 -39
-9 -50 -3 -22 -13 -87 -20 -125 -27 -161 -26 -677 2 -850 3 -19 7 -53 9 -75 3
-22 9 -60 15 -85 6 -25 12 -57 15 -72 26 -160 117 -423 212 -612 31 -61 61
-121 67 -133 6 -13 14 -23 19 -23 4 0 7 -5 7 -10 0 -10 103 -169 135 -208 225
-279 442 -477 701 -639 72 -45 268 -145 364 -186 95 -41 265 -95 383 -122 10
-2 26 -6 35 -9 9 -3 34 -8 56 -12 21 -3 47 -8 57 -10 11 -2 29 -6 42 -9 12 -3
45 -7 72 -10 28 -3 66 -7 85 -10 164 -24 606 -24 825 1 76 8 117 13 150 19 17
3 46 7 65 10 19 2 46 7 60 10 14 3 36 8 49 11 85 18 158 37 236 64 50 17 95
32 100 34 97 29 313 150 410 229 116 96 367 341 466 457 35 41 67 77 70 80 19
17 165 210 216 287 l62 92 -28 21 c-16 11 -34 20 -39 20 -6 0 -12 4 -14 8 -1
4 -43 32 -93 62 -49 30 -92 57 -95 60 -3 3 -27 19 -54 35 -95 57 -305 189
-321 202 -18 15 -103 63 -112 63 -4 0 -19 -17 -33 -37 -14 -21 -32 -45 -40
-53 -8 -9 -33 -38 -55 -65 -22 -27 -53 -63 -70 -81 -16 -17 -48 -51 -71 -75
-176 -188 -423 -373 -621 -465 -84 -39 -173 -73 -173 -67 0 3 -6 1 -12 -5 -16
-12 -161 -52 -211 -57 -21 -2 -41 -6 -45 -9 -15 -9 -162 -19 -262 -17 -138 2
-221 10 -325 32 -57 13 -272 78 -295 90 -8 4 -53 27 -99 49 -72 35 -235 133
-251 150 -3 3 -23 18 -45 35 -22 16 -45 34 -51 40 -7 5 -29 24 -51 42 -39 32
-183 175 -223 223 -12 14 -31 36 -43 50 -73 84 -184 256 -239 370 -111 231
-163 465 -162 735 1 306 66 556 214 820 25 46 132 207 141 215 3 3 30 34 59
69 102 123 238 250 405 379 68 53 302 183 400 223 34 14 204 68 227 73 13 3
48 10 78 15 30 6 66 13 80 16 118 25 436 24 564 0 196 -38 363 -102 502 -190
30 -19 58 -35 63 -35 5 0 11 -3 13 -7 2 -5 30 -28 63 -53 33 -24 69 -53 81
-65 12 -11 32 -29 45 -41 13 -11 53 -51 88 -89 l64 -68 -24 -20 c-13 -10 -36
-30 -51 -43 -15 -13 -31 -24 -34 -24 -4 0 -12 -6 -18 -14 -6 -7 -81 -69 -166
-136 -85 -68 -173 -139 -195 -157 -22 -19 -45 -37 -50 -41 -6 -4 -33 -25 -60
-48 -28 -22 -131 -105 -230 -184 -99 -79 -182 -147 -185 -150 -3 -3 -70 -57
-150 -120 -80 -63 -154 -122 -165 -132 -16 -13 -102 -82 -175 -141 -76 -61
-117 -94 -128 -102 -7 -5 -21 -17 -30 -25 -10 -8 -60 -49 -112 -89 -52 -41
-102 -82 -111 -90 -10 -9 -85 -70 -167 -136 -90 -71 -148 -124 -144 -131 6 -9
87 -104 127 -148 6 -6 35 -40 65 -76 30 -35 64 -74 75 -86 11 -11 39 -43 61
-70 23 -27 50 -59 60 -70 11 -12 40 -46 66 -75 25 -30 55 -65 67 -78 15 -17
24 -21 33 -14 47 37 456 360 468 370 8 7 92 73 185 148 94 74 179 142 190 151
11 8 100 79 199 157 98 78 242 193 320 255 77 62 154 123 169 135 16 12 37 29
47 37 10 8 33 26 50 40 18 14 37 30 44 35 6 6 38 31 71 57 33 25 71 55 85 67
14 11 30 24 35 28 6 5 75 60 155 123 80 63 152 120 160 127 12 10 81 65 150
120 8 6 119 94 245 194 286 226 260 201 242 230 -8 13 -39 72 -70 130 -30 58
-76 140 -101 183 -25 43 -46 80 -46 82 0 5 -8 17 -68 106 -18 25 -32 51 -32
56 0 6 -4 12 -8 14 -5 2 -23 24 -40 50 -18 25 -38 52 -44 60 -7 7 -26 31 -43
53 -31 41 -120 133 -190 195 -93 83 -452 340 -474 340 -5 0 -11 4 -13 8 -3 8
-184 112 -194 112 -2 0 -23 8 -47 19 -23 10 -58 24 -77 31 -19 7 -44 16 -55
20 -57 23 -155 52 -185 56 -8 1 -35 7 -60 14 -25 7 -58 14 -75 17 -16 2 -39 6
-50 8 -56 11 -74 14 -126 20 -31 3 -66 7 -77 10 -61 11 -537 27 -546 17z"/>
</g>
</svg>
