<svg width="51" height="15" viewBox="0 0 51 15" fill="none" xmlns="http://www.w3.org/2000/svg">
<path d="M3.304 9.138L2.59 8.312L5.446 6.016C5.026 5.52133 4.51267 5.274 3.906 5.274C3.25267 5.274 2.67867 5.51667 2.184 6.002C1.68933 6.478 1.442 7.02867 1.442 7.654C1.442 8.27 1.68 8.816 2.156 9.292C2.632 9.768 3.17333 10.006 3.78 10.006C4.536 10.006 5.21733 9.6 5.824 8.788L6.804 9.404C6.552 9.80533 6.21133 10.1927 5.782 10.566C5.35267 10.93 4.68533 11.112 3.78 11.112C2.772 11.112 1.94133 10.79 1.288 10.146C0.634667 9.502 0.308 8.67133 0.308 7.654C0.308 6.63667 0.63 5.792 1.274 5.12C1.92733 4.43867 2.758 4.098 3.766 4.098C4.50333 4.098 5.09133 4.24267 5.53 4.532C5.96867 4.812 6.26267 5.05467 6.412 5.26C6.57067 5.456 6.762 5.77333 6.986 6.212L3.304 9.138ZM7.80708 7.22C7.80708 6.296 8.09641 5.554 8.67508 4.994C9.25374 4.42467 10.0237 4.14 10.9851 4.14C11.9277 4.14 12.6884 4.42 13.2671 4.98C13.8551 5.54 14.1491 6.28667 14.1491 7.22V11H12.9451V7.206C12.9451 6.618 12.7631 6.142 12.3991 5.778C12.0444 5.414 11.5684 5.232 10.9711 5.232C10.4111 5.232 9.94441 5.414 9.57108 5.778C9.20708 6.13267 9.02508 6.60867 9.02508 7.206V11H7.80708V7.22ZM18.7 11.112C17.6453 11.112 16.7726 10.79 16.082 10.146C15.4006 9.49267 15.06 8.67133 15.06 7.682C15.06 6.674 15.41 5.82 16.11 5.12C16.4646 4.76533 16.852 4.49933 17.272 4.322C17.692 4.14467 18.1633 4.056 18.686 4.056C19.6846 4.056 20.5153 4.39667 21.178 5.078C21.8406 5.75933 22.172 6.64133 22.172 7.724V10.398C22.172 11.4993 21.8033 12.3953 21.066 13.086C20.3286 13.786 19.3626 14.136 18.168 14.136C17.776 14.136 17.2533 14.0427 16.6 13.856V12.652C17.2066 12.876 17.6873 12.988 18.042 12.988C18.9473 12.988 19.652 12.7593 20.156 12.302C20.66 11.8447 20.912 11.2193 20.912 10.426V7.766C20.912 7.02867 20.6926 6.42667 20.254 5.96C19.8153 5.484 19.26 5.246 18.588 5.246C17.9533 5.246 17.412 5.47467 16.964 5.932C16.5253 6.38 16.306 6.93067 16.306 7.584C16.306 8.29333 16.5393 8.86733 17.006 9.306C17.4726 9.74467 18.084 9.964 18.84 9.964C19.092 9.964 19.316 9.936 19.512 9.88C19.7173 9.824 20.002 9.70733 20.366 9.53V10.776C19.694 11 19.1386 11.112 18.7 11.112ZM26.0813 9.138L25.3673 8.312L28.2233 6.016C27.8033 5.52133 27.29 5.274 26.6833 5.274C26.03 5.274 25.456 5.51667 24.9613 6.002C24.4667 6.478 24.2193 7.02867 24.2193 7.654C24.2193 8.27 24.4573 8.816 24.9333 9.292C25.4093 9.768 25.9507 10.006 26.5573 10.006C27.3133 10.006 27.9947 9.6 28.6013 8.788L29.5813 9.404C29.3293 9.80533 28.9887 10.1927 28.5593 10.566C28.13 10.93 27.4627 11.112 26.5573 11.112C25.5493 11.112 24.7187 10.79 24.0653 10.146C23.412 9.502 23.0853 8.67133 23.0853 7.654C23.0853 6.63667 23.4073 5.792 24.0513 5.12C24.7047 4.43867 25.5353 4.098 26.5433 4.098C27.2807 4.098 27.8687 4.24267 28.3073 4.532C28.746 4.812 29.04 5.05467 29.1893 5.26C29.348 5.456 29.5393 5.77333 29.7633 6.212L26.0813 9.138ZM30.5844 6.632C30.5844 5.94133 30.8224 5.34867 31.2984 4.854C31.7838 4.35933 32.3764 4.112 33.0764 4.112L33.4124 4.126V5.246H33.1884C32.7964 5.246 32.4651 5.38133 32.1944 5.652C32.0638 5.792 31.9658 5.946 31.9004 6.114C31.8351 6.282 31.8024 6.48267 31.8024 6.716V11H30.5844V6.632ZM33.9344 4.238H35.1524V11H33.9344V4.238ZM34.5504 0.78C34.793 0.78 35.003 0.868666 35.1804 1.046C35.3577 1.22333 35.4464 1.438 35.4464 1.69C35.4464 1.942 35.3577 2.15667 35.1804 2.334C35.003 2.51133 34.793 2.6 34.5504 2.6C34.2984 2.6 34.0837 2.51133 33.9064 2.334C33.729 2.15667 33.6404 1.942 33.6404 1.69C33.6404 1.438 33.729 1.22333 33.9064 1.046C34.0837 0.868666 34.2984 0.78 34.5504 0.78ZM42.7233 8.018C42.7233 8.942 42.4293 9.68867 41.8413 10.258C41.2626 10.8273 40.502 11.112 39.5593 11.112C38.6073 11.112 37.8373 10.832 37.2493 10.272C36.6706 9.712 36.3813 8.96067 36.3813 8.018V4.238H37.5993V8.032C37.5993 8.62 37.7766 9.096 38.1313 9.46C38.4953 9.824 38.9713 10.006 39.5593 10.006C40.138 10.006 40.6093 9.824 40.9733 9.46C41.3373 9.096 41.5193 8.62 41.5193 8.032V4.238H42.7233V8.018ZM44.9502 9.208C44.9502 9.42267 45.0062 9.59533 45.1182 9.726C45.2395 9.85667 45.4122 9.922 45.6362 9.922C45.8602 9.922 46.0515 9.852 46.2102 9.712C46.3688 9.56267 46.4482 9.37133 46.4482 9.138C46.4482 8.84867 46.3268 8.62467 46.0842 8.466L44.6982 7.556C44.1382 7.164 43.8582 6.646 43.8582 6.002C43.8582 5.498 44.0542 5.05467 44.4462 4.672C44.8382 4.28933 45.2862 4.098 45.7902 4.098C46.3782 4.098 46.7982 4.25667 47.0502 4.574C47.3115 4.89133 47.4655 5.12 47.5122 5.26C47.5588 5.39067 47.6055 5.582 47.6522 5.834L46.4762 5.806C46.3735 5.414 46.1448 5.218 45.7902 5.218C45.6035 5.218 45.4308 5.29267 45.2722 5.442C45.1228 5.582 45.0482 5.75 45.0482 5.946C45.0482 6.198 45.1835 6.41267 45.4542 6.59L46.7142 7.43C47.2928 7.81267 47.5822 8.36333 47.5822 9.082C47.5822 9.642 47.3908 10.1227 47.0082 10.524C46.6255 10.916 46.1682 11.112 45.6362 11.112C45.1602 11.112 44.7728 10.972 44.4742 10.692C44.1848 10.4027 44.0028 10.174 43.9282 10.006C43.8535 9.82867 43.7882 9.55333 43.7322 9.18L44.9502 9.208ZM49.3726 9.376C49.6246 9.376 49.8393 9.46467 50.0166 9.642C50.194 9.81933 50.2826 10.034 50.2826 10.286C50.2826 10.538 50.194 10.7527 50.0166 10.93C49.8393 11.1073 49.6246 11.196 49.3726 11.196C49.1206 11.196 48.906 11.1073 48.7286 10.93C48.5513 10.7527 48.4626 10.538 48.4626 10.286C48.4626 10.034 48.5513 9.81933 48.7286 9.642C48.906 9.46467 49.1206 9.376 49.3726 9.376Z" fill="#4E5CDF"/>
</svg>
