<?xml version="1.0" encoding="UTF-8"?>
<svg width="70px" height="70px" viewBox="0 0 70 70" version="1.1" xmlns="http://www.w3.org/2000/svg" xmlns:xlink="http://www.w3.org/1999/xlink">
    <title>ic-process-release</title>
    <g id="Design" stroke="none" stroke-width="1" fill="none" fill-rule="evenodd">
        <g id="Tablet---768" transform="translate(-404.000000, -2088.000000)">
            <g id="Our-development-process" transform="translate(16.000000, 1457.000000)">
                <g id="6" transform="translate(388.000000, 631.000000)">
                    <g id="ic-process-release">
                        <g id="Group-21" transform="translate(0.000000, 10.000000)">
                            <rect id="Rectangle" fill="#0091FF" x="0" y="0" width="60" height="60" rx="14"></rect>
                            <g id="Group-12" transform="translate(10.000000, 10.000000)">
                                <g id="ic-final-release-copy">
                                    <rect id="Rectangle" x="0" y="0" width="40" height="40"></rect>
                                    <g id="icons8-rocket" transform="translate(8.000000, 8.000000)" fill="#FFFFFF" fill-rule="nonzero">
                                        <path d="M23.9785164,0.0214836003 C23.9785164,0.0214836003 15,-6.55725474e-16 8,7 C7.676811,7.323189 7.395406,7.675024 7.140625,8.039062 C5.8995439,7.939831 3.9997651,7.972248 3.0273438,8.945312 C0.7573437,11.215312 0,15 0,15 L5,14.285156 L5,16 L8,19 L9.714844,19 L9,24 C9,24 12.784688,23.242656 15.054688,20.972656 C16.027752,20.000235 16.060169,18.100456 15.960938,16.859375 C16.324976,16.604594 16.676811,16.323189 17,16 C24,9 23.9785164,0.0214836003 23.9785164,0.0214836003 Z M16,6 C17.105,6 18,6.895 18,8 C18,9.105 17.105,10 16,10 C14.895,10 14,9.105 14,8 C14,6.895 14.895,6 16,6 Z M4.1992188,16.996094 C3.8192188,17.096094 3.4591094,17.286984 3.1621094,17.583984 C1.7961094,18.949984 2.0136719,21.984375 2.0136719,21.984375 C2.0136719,21.984375 5.0281094,22.219938 6.4121094,20.835938 C6.7091094,20.538937 6.9,20.176875 7,19.796875 L6.5429688,19.339844 C6.4979688,19.403844 6.4701094,19.478156 6.4121094,19.535156 C5.4371094,20.510156 3.9746094,20.023438 3.9746094,20.023438 C3.9746094,20.023438 3.4868906,18.560938 4.4628906,17.585938 C4.5208906,17.527938 4.59225,17.501078 4.65625,17.455078 L4.1992188,16.996094 Z" id="Shape"></path>
                                    </g>
                                </g>
                            </g>
                        </g>
                        <g id="Group" transform="translate(40.000000, 0.000000)">
                            <rect id="Rectangle" stroke="#FFFFFF" stroke-width="3" fill="#FFFFFF" x="1.5" y="1.5" width="27" height="27" rx="13.5"></rect>
                            <path d="M15.091,21.098 C15.763,21.098 16.3393333,20.951 16.82,20.657 C17.3006667,20.363 17.653,19.9453333 17.877,19.404 C18.0636667,18.9746667 18.157,18.4753333 18.157,17.906 C18.157,17.2246667 18.031,16.646 17.779,16.17 C17.5363333,15.7313333 17.2073333,15.3953333 16.792,15.162 C16.3766667,14.9286667 15.8936667,14.812 15.343,14.812 C14.6523333,14.812 14.111,15.0033333 13.719,15.386 C13.7003333,15.4046667 13.6816667,15.4093333 13.663,15.4 C13.6443333,15.3906667 13.635,15.372 13.635,15.344 L13.635,15.344 L13.635,13.818 C13.635,13.426 13.7633333,13.1063333 14.02,12.859 C14.2766667,12.6116667 14.601,12.488 14.993,12.488 C15.3756667,12.488 15.6906667,12.607 15.938,12.845 C16.1853333,13.083 16.309,13.3886667 16.309,13.762 L16.309,13.762 L16.309,13.86 C16.309,13.9066667 16.3253333,13.9463333 16.358,13.979 C16.3906667,14.0116667 16.4303333,14.028 16.477,14.028 L16.477,14.028 L17.765,14.028 C17.8116667,14.028 17.8513333,14.0116667 17.884,13.979 C17.9166667,13.9463333 17.933,13.9066667 17.933,13.86 L17.933,13.86 L17.933,13.552 C17.933,13.0666667 17.8093333,12.6373333 17.562,12.264 C17.3146667,11.8906667 16.9693333,11.6013333 16.526,11.396 C16.0826667,11.1906667 15.5763333,11.088 15.007,11.088 C14.419,11.088 13.8986667,11.193 13.446,11.403 C12.9933333,11.613 12.641,11.9093333 12.389,12.292 C12.137,12.6746667 12.011,13.118 12.011,13.622 L12.011,13.622 L12.011,17.892 C12.011,18.4146667 12.0856667,18.872 12.235,19.264 C12.4496667,19.8426667 12.8043333,20.293 13.299,20.615 C13.7936667,20.937 14.391,21.098 15.091,21.098 Z M15.077,19.684 C14.461,19.684 14.041,19.4273333 13.817,18.914 C13.6956667,18.6713333 13.635,18.3586667 13.635,17.976 C13.635,17.528 13.705,17.164 13.845,16.884 C14.0876667,16.4173333 14.4983333,16.184 15.077,16.184 C15.6276667,16.184 16.0336667,16.408 16.295,16.856 C16.4536667,17.1546667 16.533,17.514 16.533,17.934 C16.533,18.3166667 16.463,18.648 16.323,18.928 C16.0803333,19.432 15.665,19.684 15.077,19.684 Z" id="6" fill="#0091FF" fill-rule="nonzero"></path>
                        </g>
                    </g>
                </g>
            </g>
        </g>
    </g>
</svg>