<?xml version="1.0" encoding="UTF-8"?>
<svg width="70px" height="70px" viewBox="0 0 70 70" version="1.1" xmlns="http://www.w3.org/2000/svg" xmlns:xlink="http://www.w3.org/1999/xlink">
    <title>ic-process-design</title>
    <g id="Design" stroke="none" stroke-width="1" fill="none" fill-rule="evenodd">
        <g id="Tablet---768" transform="translate(-404.000000, -1540.000000)">
            <g id="Our-development-process" transform="translate(16.000000, 1457.000000)">
                <g id="2" transform="translate(388.000000, 83.000000)">
                    <g id="ic-process-design">
                        <g id="Group-21" transform="translate(0.000000, 10.000000)">
                            <rect id="Rectangle" fill="#4E5CDF" x="0" y="0" width="60" height="60" rx="14"></rect>
                            <g id="Group-27" transform="translate(10.000000, 10.000000)">
                                <g id="ic-ui-design-copy">
                                    <rect id="Rectangle" x="0" y="0" width="40" height="40"></rect>
                                    <g id="icons8-prototype" transform="translate(9.000000, 9.000000)" fill="#FFFFFF" fill-rule="nonzero">
                                        <path d="M2,0 C0.895,0 0,0.895 0,2 L0,4 L22,4 L22,2 C22,0.895 21.105,0 20,0 L2,0 Z M0,6 L0,20 C0,21.105 0.895,22 2,22 L14,22 L14,6 L0,6 Z M16,6 L16,10 L22,10 L22,6 L16,6 Z M16,12 L16,16 L22,16 L22,12 L16,12 Z M16,18 L16,22 L20,22 C21.105,22 22,21.105 22,20 L22,18 L16,18 Z" id="Shape"></path>
                                    </g>
                                </g>
                            </g>
                        </g>
                        <g id="Group" transform="translate(40.000000, 0.000000)">
                            <rect id="Rectangle" fill="#FFFFFF" x="0" y="0" width="30" height="30" rx="15"></rect>
                            <path d="M18.031,21 C18.0776667,21 18.1173333,20.9836667 18.15,20.951 C18.1826667,20.9183333 18.199,20.8786667 18.199,20.832 L18.199,20.832 L18.199,19.768 C18.199,19.7213333 18.1826667,19.6816667 18.15,19.649 C18.1173333,19.6163333 18.0776667,19.6 18.031,19.6 L18.031,19.6 L14.041,19.6 C14.013,19.6 13.9966667,19.5906667 13.992,19.572 C13.9873333,19.5533333 13.9943333,19.5346667 14.013,19.516 L14.013,19.516 L14.545,18.928 C15.5716667,17.808 16.309,16.968 16.757,16.408 C17.569,15.4093333 17.975,14.5273333 17.975,13.762 C17.975,13.258 17.849,12.803 17.597,12.397 C17.345,11.991 16.9856667,11.6713333 16.519,11.438 C16.0523333,11.2046667 15.5063333,11.088 14.881,11.088 C14.3116667,11.088 13.796,11.1906667 13.334,11.396 C12.872,11.6013333 12.5056667,11.8906667 12.235,12.264 C11.9643333,12.6373333 11.8196667,13.076 11.801,13.58 L11.801,13.58 L11.801,14.182 C11.801,14.2286667 11.8173333,14.2683333 11.85,14.301 C11.8826667,14.3336667 11.9223333,14.35 11.969,14.35 L11.969,14.35 L13.271,14.35 C13.3176667,14.35 13.3573333,14.3336667 13.39,14.301 C13.4226667,14.2683333 13.439,14.2286667 13.439,14.182 L13.439,14.182 L13.439,13.818 C13.439,13.4166667 13.572,13.0946667 13.838,12.852 C14.104,12.6093333 14.4516667,12.488 14.881,12.488 C15.3103333,12.488 15.6603333,12.6093333 15.931,12.852 C16.2016667,13.0946667 16.337,13.4073333 16.337,13.79 C16.337,14.3033333 15.9076667,15.0593333 15.049,16.058 L15.049,16.058 L14.391,16.828 C13.4576667,17.9293333 12.6363333,18.858 11.927,19.614 C11.871,19.67 11.843,19.74 11.843,19.824 L11.843,19.824 L11.843,20.832 C11.843,20.8786667 11.8593333,20.9183333 11.892,20.951 C11.9246667,20.9836667 11.9643333,21 12.011,21 L12.011,21 L18.031,21 Z" id="2" fill="#4E5CDF" fill-rule="nonzero"></path>
                        </g>
                    </g>
                </g>
            </g>
        </g>
    </g>
</svg>