<?xml version="1.0" encoding="UTF-8"?>
<svg width="70px" height="70px" viewBox="0 0 70 70" version="1.1" xmlns="http://www.w3.org/2000/svg" xmlns:xlink="http://www.w3.org/1999/xlink">
    <title>ic-process-development</title>
    <g id="Design" stroke="none" stroke-width="1" fill="none" fill-rule="evenodd">
        <g id="Tablet---768" transform="translate(-404.000000, -1814.000000)">
            <g id="Our-development-process" transform="translate(16.000000, 1457.000000)">
                <g id="4" transform="translate(388.000000, 357.000000)">
                    <g id="ic-process-development">
                        <g id="Group-21" transform="translate(0.000000, 10.000000)">
                            <rect id="Rectangle" fill="#C14463" x="0" y="0" width="60" height="60" rx="14"></rect>
                            <g id="Group-14" transform="translate(10.000000, 10.000000)">
                                <g id="ic-incremental-release-copy">
                                    <rect id="Rectangle" x="0" y="0" width="40" height="40"></rect>
                                    <g id="icons8-code" transform="translate(7.000000, 9.000000)" fill="#FFFFFF" fill-rule="nonzero">
                                        <path d="M2,0 C0.895,0 0,0.895 0,2 L0,6 L0,22 L26,22 L26,4 L26,2 C26,0.895 25.105,0 24,0 L2,0 Z M2,6 L24,6 L24,20 L2,20 L2,6 Z M14.033203,7.986328 C13.5576636,7.97197123 13.1378349,8.2946022 13.029297,8.757812 L11.029297,16.757812 C10.9426648,17.1046489 11.0476831,17.4713555 11.3047803,17.7197545 C11.5618775,17.9681534 11.9319802,18.0604931 12.2756312,17.9619794 C12.6192823,17.8634657 12.8842539,17.5890706 12.970703,17.242188 L14.970703,9.242188 C15.0489105,8.9470695 14.9880314,8.63239185 14.8053966,8.38773723 C14.6227618,8.1430826 14.3383779,7.99525137 14.033203,7.986328 Z M7.9804688,8.988281 C7.65085296,8.99736529 7.34689785,9.16833994 7.1679688,9.445312 L4.7988281,13 L7.1679688,16.554688 C7.36350486,16.8581884 7.70744053,17.0327399 8.06784426,17.0113855 C8.42824799,16.9900312 8.74916478,16.7760864 8.90749299,16.4516191 C9.0658212,16.1271518 9.03697935,15.7425376 8.832031,15.445312 L7.2011719,13 L8.832031,10.554688 C9.04528959,10.2445742 9.0663881,9.84099165 8.88662791,9.51033158 C8.70686773,9.17967152 8.35669034,8.97792957 7.9804688,8.988281 Z M17.988281,8.98827322 C17.6176642,8.98976267 17.2782551,9.19607977 17.1063157,9.52440257 C16.9343762,9.85272537 16.9581024,10.2492129 17.167969,10.554688 L18.798828,13 L17.167969,15.445312 C16.9630183,15.7425375 16.934175,16.1271531 17.0925032,16.4516219 C17.2508313,16.7760906 17.5717494,16.9900362 17.9321544,17.01139 C18.2925594,17.0327438 18.6364958,16.8581905 18.832031,16.554688 L21.201172,13 L18.832031,9.445312 C18.6470038,9.15917831 18.329024,8.98693934 17.988281,8.98827322 L17.988281,8.98827322 Z" id="Shape"></path>
                                    </g>
                                </g>
                            </g>
                        </g>
                        <g id="Group" transform="translate(40.000000, 0.000000)">
                            <rect id="Rectangle" stroke="#FFFFFF" stroke-width="3" fill="#FFFFFF" x="1.5" y="1.5" width="27" height="27" rx="13.5"></rect>
                            <path d="M17.887,21 C17.9336667,21 17.9733333,20.9836667 18.006,20.951 C18.0386667,20.9183333 18.055,20.8786667 18.055,20.832 L18.055,20.832 L18.055,18.494 C18.055,18.4473333 18.0783333,18.424 18.125,18.424 L18.125,18.424 L18.713,18.424 C18.7596667,18.424 18.7993333,18.4076667 18.832,18.375 C18.8646667,18.3423333 18.881,18.3026667 18.881,18.256 L18.881,18.256 L18.881,17.136 C18.881,17.0893333 18.8646667,17.0496667 18.832,17.017 C18.7993333,16.9843333 18.7596667,16.968 18.713,16.968 L18.713,16.968 L18.125,16.968 C18.0783333,16.968 18.055,16.9446667 18.055,16.898 L18.055,16.898 L18.055,14.994 C18.055,14.9473333 18.0386667,14.9076667 18.006,14.875 C17.9733333,14.8423333 17.9336667,14.826 17.887,14.826 L17.887,14.826 L16.599,14.826 C16.5523333,14.826 16.5126667,14.8423333 16.48,14.875 C16.4473333,14.9076667 16.431,14.9473333 16.431,14.994 L16.431,14.994 L16.431,16.898 C16.431,16.9446667 16.4076667,16.968 16.361,16.968 L16.361,16.968 L13.869,16.968 C13.8503333,16.968 13.8363333,16.9586667 13.827,16.94 C13.8176667,16.9213333 13.8176667,16.9026667 13.827,16.884 L13.827,16.884 L16.319,11.396 C16.347,11.3306667 16.3493333,11.2816667 16.326,11.249 C16.3026667,11.2163333 16.2583333,11.2 16.193,11.2 L16.193,11.2 L14.821,11.2 C14.7276667,11.2 14.6623333,11.242 14.625,11.326 L14.625,11.326 L11.979,17.15 C11.951,17.234 11.937,17.304 11.937,17.36 L11.937,17.36 L11.937,18.256 C11.937,18.3026667 11.9533333,18.3423333 11.986,18.375 C12.0186667,18.4076667 12.0583333,18.424 12.105,18.424 L12.105,18.424 L16.361,18.424 C16.4076667,18.424 16.431,18.4473333 16.431,18.494 L16.431,18.494 L16.431,20.832 C16.431,20.8786667 16.4473333,20.9183333 16.48,20.951 C16.5126667,20.9836667 16.5523333,21 16.599,21 L16.599,21 L17.887,21 Z" id="4" fill="#C14463" fill-rule="nonzero"></path>
                        </g>
                    </g>
                </g>
            </g>
        </g>
    </g>
</svg>