<?xml version="1.0" encoding="UTF-8"?>
<svg width="70px" height="70px" viewBox="0 0 70 70" version="1.1" xmlns="http://www.w3.org/2000/svg" xmlns:xlink="http://www.w3.org/1999/xlink">
    <title>ic-process-planning</title>
    <g id="Design" stroke="none" stroke-width="1" fill="none" fill-rule="evenodd">
        <g id="Tablet---768" transform="translate(-16.000000, -1814.000000)">
            <g id="Our-development-process" transform="translate(16.000000, 1457.000000)">
                <g id="3" transform="translate(0.000000, 357.000000)">
                    <g id="ic-process-planning">
                        <g id="Group-21" transform="translate(0.000000, 10.000000)">
                            <rect id="Rectangle" fill="#F8936C" x="0" y="0" width="60" height="60" rx="14"></rect>
                            <g id="Group-25" transform="translate(10.000000, 10.000000)">
                                <g id="ic-sprint-planning-copy">
                                    <rect id="Rectangle" x="0" y="0" width="40" height="40"></rect>
                                    <g id="icons8-tiles" transform="translate(7.000000, 11.000000)" fill="#FFFFFF" fill-rule="nonzero">
                                        <path d="M0.962962963,0 C0.431407407,0 0,0.424421053 0,0.947368421 L0,6.63157895 C0,7.15452632 0.431407407,7.57894737 0.962962963,7.57894737 L6.74074074,7.57894737 C7.2722963,7.57894737 7.7037037,7.15452632 7.7037037,6.63157895 L7.7037037,0.947368421 C7.7037037,0.424421053 7.2722963,0 6.74074074,0 L0.962962963,0 Z M11.5555556,0.947368421 C11.2082765,0.942536568 10.885255,1.12203975 10.7101822,1.4171427 C10.5351094,1.71224565 10.5351094,2.07722804 10.7101822,2.37233098 C10.885255,2.66743393 11.2082765,2.84693712 11.5555556,2.84210526 L24.0740741,2.84210526 C24.4213531,2.84693712 24.7443746,2.66743393 24.9194474,2.37233098 C25.0945202,2.07722804 25.0945202,1.71224565 24.9194474,1.4171427 C24.7443746,1.12203975 24.4213531,0.942536568 24.0740741,0.947368421 L11.5555556,0.947368421 Z M3.85185185,1.89473684 C4.91592593,1.89473684 5.77777778,2.74263158 5.77777778,3.78947368 C5.77777778,4.83536842 4.91592593,5.68421053 3.85185185,5.68421053 C2.78777778,5.68421053 1.92592593,4.83536842 1.92592593,3.78947368 C1.92592593,2.74263158 2.78777778,1.89473684 3.85185185,1.89473684 Z M11.5555556,4.73684211 C11.2082765,4.73201025 10.885255,4.91151344 10.7101822,5.20661638 C10.5351094,5.50171933 10.5351094,5.86670172 10.7101822,6.16180467 C10.885255,6.45690761 11.2082765,6.6364108 11.5555556,6.63157895 L20.2222222,6.63157895 C20.5695013,6.6364108 20.8925228,6.45690761 21.0675956,6.16180467 C21.2426684,5.86670172 21.2426684,5.50171933 21.0675956,5.20661638 C20.8925228,4.91151344 20.5695013,4.73201025 20.2222222,4.73684211 L11.5555556,4.73684211 Z M0.962962963,10.4210526 C0.431407407,10.4210526 0,10.8454737 0,11.3684211 L0,17.0526316 C0,17.5755789 0.431407407,18 0.962962963,18 L6.74074074,18 C7.2722963,18 7.7037037,17.5755789 7.7037037,17.0526316 L7.7037037,11.3684211 C7.7037037,10.8454737 7.2722963,10.4210526 6.74074074,10.4210526 L0.962962963,10.4210526 Z M11.5555556,11.3684211 C11.2082765,11.3635892 10.885255,11.5430924 10.7101822,11.8381953 C10.5351094,12.1332983 10.5351094,12.4982807 10.7101822,12.7933836 C10.885255,13.0884866 11.2082765,13.2679897 11.5555556,13.2631579 L24.0740741,13.2631579 C24.4213531,13.2679897 24.7443746,13.0884866 24.9194474,12.7933836 C25.0945202,12.4982807 25.0945202,12.1332983 24.9194474,11.8381953 C24.7443746,11.5430924 24.4213531,11.3635892 24.0740741,11.3684211 L11.5555556,11.3684211 Z M1.92592593,12.3157895 L5.77777778,12.3157895 L5.77777778,16.1052632 L1.92592593,16.1052632 L1.92592593,12.3157895 Z M11.5555556,15.1578947 C11.2082765,15.1530629 10.885255,15.3325661 10.7101822,15.627669 C10.5351094,15.922772 10.5351094,16.2877544 10.7101822,16.5828573 C10.885255,16.8779602 11.2082765,17.0574634 11.5555556,17.0526316 L20.2222222,17.0526316 C20.5695013,17.0574634 20.8925228,16.8779602 21.0675956,16.5828573 C21.2426684,16.2877544 21.2426684,15.922772 21.0675956,15.627669 C20.8925228,15.3325661 20.5695013,15.1530629 20.2222222,15.1578947 L11.5555556,15.1578947 Z" id="Shape"></path>
                                    </g>
                                </g>
                            </g>
                        </g>
                        <g id="Group" transform="translate(40.000000, 0.000000)">
                            <rect id="Rectangle" stroke="#FFFFFF" stroke-width="3" fill="#FFFFFF" x="1.5" y="1.5" width="27" height="27" rx="13.5"></rect>
                            <path d="M14.909,21.112 C15.609,21.112 16.2063333,20.951 16.701,20.629 C17.1956667,20.307 17.5503333,19.852 17.765,19.264 C17.9236667,18.8626667 18.003,18.4006667 18.003,17.878 C18.003,17.2993333 17.9096667,16.786 17.723,16.338 C17.359,15.498 16.743,15.0173333 15.875,14.896 C15.8003333,14.8773333 15.7816667,14.8493333 15.819,14.812 L15.819,14.812 L17.821,12.796 C17.877,12.74 17.905,12.67 17.905,12.586 L17.905,12.586 L17.905,11.368 C17.905,11.3213333 17.8886667,11.2816667 17.856,11.249 C17.8233333,11.2163333 17.7836667,11.2 17.737,11.2 L17.737,11.2 L12.151,11.2 C12.1043333,11.2 12.0646667,11.2163333 12.032,11.249 C11.9993333,11.2816667 11.983,11.3213333 11.983,11.368 L11.983,11.368 L11.983,12.432 C11.983,12.4786667 11.9993333,12.5183333 12.032,12.551 C12.0646667,12.5836667 12.1043333,12.6 12.151,12.6 L12.151,12.6 L15.651,12.6 C15.679,12.6 15.6976667,12.6093333 15.707,12.628 C15.7163333,12.6466667 15.7116667,12.6653333 15.693,12.684 L15.693,12.684 L13.383,14.952 C13.3456667,14.9893333 13.327,15.0313333 13.327,15.078 C13.327,15.106 13.341,15.1433333 13.369,15.19 L13.369,15.19 L14.013,16.086 C14.0596667,16.142 14.1063333,16.17 14.153,16.17 C14.181,16.17 14.2136667,16.1606667 14.251,16.142 C14.5216667,15.9553333 14.7363333,15.862 14.895,15.862 C15.4923333,15.862 15.9123333,16.1233333 16.155,16.646 C16.295,16.954 16.365,17.346 16.365,17.822 C16.365,18.2513333 16.3043333,18.6013333 16.183,18.872 C15.9496667,19.432 15.525,19.712 14.909,19.712 C14.5823333,19.712 14.3046667,19.6256667 14.076,19.453 C13.8473333,19.2803333 13.691,19.0446667 13.607,18.746 C13.5323333,18.5686667 13.4856667,18.3306667 13.467,18.032 C13.467,17.92 13.411,17.864 13.299,17.864 L13.299,17.864 L11.997,17.864 C11.885,17.864 11.829,17.92 11.829,18.032 C11.8476667,18.4986667 11.913,18.8766667 12.025,19.166 C12.2396667,19.7633333 12.6013333,20.237 13.11,20.587 C13.6186667,20.937 14.2183333,21.112 14.909,21.112 Z" id="3" fill="#F7926B" fill-rule="nonzero"></path>
                        </g>
                    </g>
                </g>
            </g>
        </g>
    </g>
</svg>