<?xml version="1.0" encoding="UTF-8"?>
<svg width="70px" height="70px" viewBox="0 0 70 70" version="1.1" xmlns="http://www.w3.org/2000/svg" xmlns:xlink="http://www.w3.org/1999/xlink">
    <title>ic-process-requirement</title>
    <g id="Design" stroke="none" stroke-width="1" fill="none" fill-rule="evenodd">
        <g id="Tablet---768" transform="translate(-16.000000, -1540.000000)">
            <g id="Our-development-process" transform="translate(16.000000, 1457.000000)">
                <g id="1" transform="translate(0.000000, 83.000000)">
                    <g id="ic-process-requirement">
                        <g id="Group-21" transform="translate(0.000000, 10.000000)">
                            <rect id="Rectangle" fill="#2EA28C" x="0" y="0" width="60" height="60" rx="14"></rect>
                            <g id="Group-28" transform="translate(10.000000, 10.000000)">
                                <g id="ic-requirements-copy">
                                    <rect id="Rectangle" x="0" y="0" width="40" height="40"></rect>
                                    <g id="icons8-important_property" transform="translate(6.000000, 7.000000)" fill="#FFFFFF" fill-rule="nonzero">
                                        <path d="M2,0 C0.895,0 0,0.895 0,2 L0,6 L0,22 L12.523438,22 C12.297438,21.362 12.135594,20.695 12.058594,20 L2,20 L2,6 L24,6 L24,10.523438 C24.711,10.775438 25.384,11.104578 26,11.517578 L26,3 L26,2 C26,0.895 25.105,0 24,0 L2,0 Z M6,9 C5.44771525,9 5,9.44771525 5,10 C5,10.5522847 5.44771525,11 6,11 C6.55228475,11 7,10.5522847 7,10 C7,9.44771525 6.55228475,9 6,9 Z M10,9 C9.448,9 9,9.448 9,10 C9,10.552 9.448,11 10,11 L16.888672,11 C17.836672,10.512 18.881281,10.185547 19.988281,10.060547 C19.989281,10.039547 20,10.021 20,10 C20,9.448 19.552,9 19,9 L10,9 Z M21,12 C17.134,12 14,15.134 14,19 C14,22.866 17.134,26 21,26 C24.866,26 28,22.866 28,19 C28,15.134 24.866,12 21,12 Z M6,13 C5.44771525,13 5,13.4477153 5,14 C5,14.5522847 5.44771525,15 6,15 C6.55228475,15 7,14.5522847 7,14 C7,13.4477153 6.55228475,13 6,13 Z M10,13 C9.448,13 9,13.448 9,14 C9,14.552 9.448,15 10,15 L12.947266,15 C13.310266,14.271 13.767641,13.6 14.306641,13 L10,13 Z M20,15 L22,15 L21.835938,21 L20.166016,21 L20,15 Z M21,22 C21.552,22 22,22.448 22,23 C22,23.552 21.552,24 21,24 C20.448,24 20,23.552 20,23 C20,22.448 20.448,22 21,22 Z" id="Shape"></path>
                                    </g>
                                </g>
                            </g>
                        </g>
                        <g id="Group" transform="translate(40.000000, 0.000000)">
                            <rect id="Rectangle" stroke="#FFFFFF" stroke-width="3" fill="#FFFFFF" x="1.5" y="1.5" width="27" height="27" rx="13.5"></rect>
                            <path d="M16.823,21 C16.8696667,21 16.9093333,20.9836667 16.942,20.951 C16.9746667,20.9183333 16.991,20.8786667 16.991,20.832 L16.991,20.832 L16.991,11.368 C16.991,11.3213333 16.9746667,11.2816667 16.942,11.249 C16.9093333,11.2163333 16.8696667,11.2 16.823,11.2 L16.823,11.2 L15.479,11.2 C15.4136667,11.2 15.3436667,11.214 15.269,11.242 L15.269,11.242 L13.757,11.998 C13.6823333,12.0353333 13.645,12.1006667 13.645,12.194 L13.645,12.194 L13.687,13.118 C13.687,13.1646667 13.6986667,13.202 13.722,13.23 C13.7453333,13.258 13.7756667,13.272 13.813,13.272 C13.841,13.272 13.8643333,13.2673333 13.883,13.258 L13.883,13.258 L15.283,12.824 C15.3016667,12.8146667 15.3203333,12.817 15.339,12.831 C15.3576667,12.845 15.367,12.8613333 15.367,12.88 L15.367,12.88 L15.367,20.832 C15.367,20.8786667 15.3833333,20.9183333 15.416,20.951 C15.4486667,20.9836667 15.4883333,21 15.535,21 L15.535,21 L16.823,21 Z" id="1" fill="#2EA28C" fill-rule="nonzero"></path>
                        </g>
                    </g>
                </g>
            </g>
        </g>
    </g>
</svg>