<?xml version="1.0" encoding="UTF-8"?>
<svg xmlns="http://www.w3.org/2000/svg" xmlns:xlink="http://www.w3.org/1999/xlink" width="64px" height="38px" viewBox="0 0 64 38" version="1.1">
<g id="surface1">
<path style=" stroke:none;fill-rule:nonzero;fill:rgb(14.509804%,18.431373%,24.313725%);fill-opacity:1;" d="M 18.242188 13.800781 C 18.242188 14.582031 18.328125 15.21875 18.472656 15.683594 C 18.640625 16.148438 18.847656 16.652344 19.140625 17.203125 C 19.246094 17.371094 19.285156 17.542969 19.285156 17.691406 C 19.285156 17.902344 19.160156 18.113281 18.890625 18.324219 L 17.578125 19.210938 C 17.386719 19.339844 17.199219 19.402344 17.035156 19.402344 C 16.824219 19.402344 16.617188 19.296875 16.40625 19.105469 C 16.117188 18.789062 15.867188 18.449219 15.65625 18.113281 C 15.449219 17.753906 15.238281 17.351562 15.011719 16.867188 C 13.382812 18.808594 11.339844 19.78125 8.878906 19.78125 C 7.125 19.78125 5.726562 19.273438 4.707031 18.261719 C 3.683594 17.246094 3.164062 15.894531 3.164062 14.203125 C 3.164062 12.40625 3.789062 10.949219 5.0625 9.847656 C 6.332031 8.75 8.023438 8.199219 10.171875 8.199219 C 10.878906 8.199219 11.609375 8.261719 12.382812 8.371094 C 13.152344 8.476562 13.945312 8.644531 14.78125 8.835938 L 14.78125 7.292969 C 14.78125 5.683594 14.449219 4.566406 13.800781 3.910156 C 13.132812 3.253906 12.007812 2.9375 10.402344 2.9375 C 9.671875 2.9375 8.917969 3.023438 8.148438 3.210938 C 7.375 3.402344 6.625 3.636719 5.894531 3.929688 C 5.5625 4.078125 5.3125 4.164062 5.164062 4.207031 C 5.019531 4.25 4.914062 4.269531 4.832031 4.269531 C 4.539062 4.269531 4.394531 4.058594 4.394531 3.613281 L 4.394531 2.578125 C 4.394531 2.242188 4.433594 1.988281 4.539062 1.839844 C 4.644531 1.691406 4.832031 1.542969 5.125 1.394531 C 5.855469 1.015625 6.730469 0.699219 7.75 0.445312 C 8.773438 0.167969 9.859375 0.0429688 11.003906 0.0429688 C 13.488281 0.0429688 15.300781 0.613281 16.46875 1.753906 C 17.617188 2.894531 18.203125 4.628906 18.203125 6.953125 L 18.203125 13.800781 Z M 9.773438 17.011719 C 10.464844 17.011719 11.171875 16.886719 11.921875 16.632812 C 12.675781 16.378906 13.34375 15.914062 13.90625 15.28125 C 14.238281 14.878906 14.488281 14.433594 14.613281 13.925781 C 14.738281 13.421875 14.824219 12.808594 14.824219 12.089844 L 14.824219 11.203125 C 14.21875 11.054688 13.570312 10.925781 12.902344 10.84375 C 12.238281 10.757812 11.589844 10.714844 10.941406 10.714844 C 9.546875 10.714844 8.523438 10.988281 7.835938 11.5625 C 7.148438 12.132812 6.8125 12.933594 6.8125 13.992188 C 6.8125 14.984375 7.0625 15.722656 7.585938 16.230469 C 8.085938 16.757812 8.816406 17.011719 9.773438 17.011719 Z M 26.523438 19.296875 C 26.148438 19.296875 25.898438 19.234375 25.730469 19.085938 C 25.566406 18.957031 25.417969 18.660156 25.292969 18.261719 L 20.390625 1.921875 C 20.265625 1.5 20.203125 1.226562 20.203125 1.078125 C 20.203125 0.738281 20.371094 0.550781 20.703125 0.550781 L 22.75 0.550781 C 23.144531 0.550781 23.417969 0.613281 23.5625 0.761719 C 23.730469 0.886719 23.855469 1.183594 23.980469 1.585938 L 27.484375 15.578125 L 30.738281 1.585938 C 30.84375 1.164062 30.96875 0.886719 31.132812 0.761719 C 31.300781 0.632812 31.59375 0.550781 31.96875 0.550781 L 33.636719 0.550781 C 34.035156 0.550781 34.304688 0.613281 34.472656 0.761719 C 34.636719 0.886719 34.785156 1.183594 34.867188 1.585938 L 38.164062 15.746094 L 41.773438 1.585938 C 41.898438 1.164062 42.042969 0.886719 42.191406 0.761719 C 42.355469 0.632812 42.628906 0.550781 43.003906 0.550781 L 44.941406 0.550781 C 45.277344 0.550781 45.464844 0.71875 45.464844 1.078125 C 45.464844 1.183594 45.445312 1.289062 45.421875 1.417969 C 45.402344 1.542969 45.359375 1.710938 45.277344 1.945312 L 40.25 18.28125 C 40.125 18.703125 39.976562 18.980469 39.8125 19.105469 C 39.644531 19.234375 39.375 19.316406 39.019531 19.316406 L 37.226562 19.316406 C 36.828125 19.316406 36.558594 19.253906 36.390625 19.105469 C 36.222656 18.957031 36.078125 18.683594 35.996094 18.261719 L 32.761719 4.628906 L 29.550781 18.238281 C 29.445312 18.660156 29.320312 18.9375 29.152344 19.085938 C 28.984375 19.234375 28.695312 19.296875 28.320312 19.296875 Z M 53.328125 19.867188 C 52.242188 19.867188 51.160156 19.738281 50.117188 19.484375 C 49.074219 19.234375 48.257812 18.957031 47.71875 18.640625 C 47.382812 18.449219 47.152344 18.238281 47.070312 18.050781 C 46.988281 17.859375 46.945312 17.648438 46.945312 17.457031 L 46.945312 16.378906 C 46.945312 15.933594 47.113281 15.722656 47.425781 15.722656 C 47.550781 15.722656 47.675781 15.746094 47.800781 15.789062 C 47.925781 15.828125 48.113281 15.914062 48.320312 16 C 49.03125 16.316406 49.804688 16.570312 50.617188 16.738281 C 51.449219 16.90625 52.265625 16.992188 53.097656 16.992188 C 54.414062 16.992188 55.433594 16.757812 56.144531 16.292969 C 56.851562 15.828125 57.230469 15.152344 57.230469 14.285156 C 57.230469 13.695312 57.039062 13.210938 56.664062 12.808594 C 56.289062 12.40625 55.582031 12.046875 54.558594 11.707031 L 51.535156 10.757812 C 50.011719 10.269531 48.886719 9.554688 48.195312 8.601562 C 47.507812 7.671875 47.152344 6.636719 47.152344 5.539062 C 47.152344 4.648438 47.339844 3.867188 47.71875 3.191406 C 48.09375 2.515625 48.59375 1.921875 49.21875 1.457031 C 49.84375 0.972656 50.554688 0.613281 51.386719 0.359375 C 52.222656 0.105469 53.097656 0 54.015625 0 C 54.476562 0 54.953125 0.0195312 55.414062 0.0859375 C 55.894531 0.148438 56.332031 0.234375 56.769531 0.316406 C 57.1875 0.421875 57.582031 0.527344 57.957031 0.65625 C 58.335938 0.78125 58.625 0.910156 58.835938 1.035156 C 59.125 1.203125 59.335938 1.375 59.460938 1.5625 C 59.585938 1.734375 59.648438 1.964844 59.648438 2.261719 L 59.648438 3.253906 C 59.648438 3.699219 59.480469 3.929688 59.167969 3.929688 C 59 3.929688 58.730469 3.847656 58.375 3.675781 C 57.1875 3.128906 55.851562 2.851562 54.371094 2.851562 C 53.183594 2.851562 52.242188 3.042969 51.597656 3.445312 C 50.949219 3.847656 50.617188 4.460938 50.617188 5.324219 C 50.617188 5.917969 50.824219 6.425781 51.242188 6.828125 C 51.660156 7.226562 52.429688 7.628906 53.535156 7.988281 L 56.5 8.941406 C 58 9.425781 59.085938 10.101562 59.730469 10.96875 C 60.378906 11.835938 60.691406 12.828125 60.691406 13.925781 C 60.691406 14.835938 60.503906 15.660156 60.148438 16.378906 C 59.773438 17.097656 59.273438 17.730469 58.625 18.238281 C 57.980469 18.765625 57.207031 19.148438 56.3125 19.421875 C 55.371094 19.71875 54.390625 19.867188 53.328125 19.867188 Z M 53.328125 19.867188 "/>
<path style=" stroke:none;fill-rule:evenodd;fill:rgb(100%,60%,0%);fill-opacity:1;" d="M 57.269531 30.136719 C 50.40625 35.273438 40.4375 38 31.863281 38 C 19.851562 38 9.023438 33.5 0.847656 26.015625 C 0.199219 25.425781 0.785156 24.621094 1.558594 25.085938 C 10.402344 30.285156 21.308594 33.433594 32.59375 33.433594 C 40.207031 33.433594 48.570312 31.828125 56.269531 28.53125 C 57.417969 28.003906 58.398438 29.292969 57.269531 30.136719 Z M 57.269531 30.136719 "/>
<path style=" stroke:none;fill-rule:evenodd;fill:rgb(100%,60%,0%);fill-opacity:1;" d="M 60.128906 26.839844 C 59.25 25.699219 54.328125 26.292969 52.097656 26.566406 C 51.429688 26.652344 51.324219 26.058594 51.929688 25.613281 C 55.851562 22.824219 62.296875 23.628906 63.046875 24.558594 C 63.800781 25.507812 62.839844 32.039062 59.167969 35.167969 C 58.605469 35.652344 58.0625 35.402344 58.3125 34.765625 C 59.148438 32.675781 61.003906 27.960938 60.128906 26.839844 Z M 60.128906 26.839844 "/>
</g>
</svg>
