<svg width="468" height="458" viewBox="0 0 468 458" fill="none" xmlns="http://www.w3.org/2000/svg">
<path fill-rule="evenodd" clip-rule="evenodd" d="M434.298 215.061C441.39 215.015 457.309 213.853 463.996 204.466C472.687 192.222 463.748 178.792 445.286 178.281C402.326 177.119 402.123 211.135 425.765 214.666L429.66 223.449L434.298 215.061Z" fill="white" stroke="black" stroke-width="1.1669" stroke-linecap="round" stroke-linejoin="round"/>
<path fill-rule="evenodd" clip-rule="evenodd" d="M427.363 196.52C428.601 196.52 429.592 197.589 429.592 198.89C429.592 200.191 428.601 201.26 427.363 201.26C426.125 201.26 425.111 200.191 425.111 198.89C425.111 197.589 426.125 196.52 427.363 196.52ZM451.094 192.873C452.333 192.873 453.323 193.941 453.323 195.242C453.323 196.544 452.333 197.612 451.094 197.612C449.856 197.612 448.843 196.544 448.843 195.242C448.843 193.941 449.856 192.873 451.094 192.873ZM438.981 194.917C440.219 194.917 441.233 195.963 441.233 197.287C441.233 198.588 440.219 199.634 438.981 199.634C437.743 199.634 436.752 198.588 436.752 197.287C436.752 195.963 437.743 194.917 438.981 194.917Z" fill="black"/>
<path fill-rule="evenodd" clip-rule="evenodd" d="M147.406 131.928C156.097 119.683 147.158 106.254 128.695 105.742C100.213 104.976 90.5313 119.66 94.1338 130.673L89.293 139.735L99.3349 138.038C101.879 140.06 105.189 141.547 109.197 142.128C121.4 142.662 139.503 143.034 147.406 131.928Z" fill="white" stroke="black" stroke-width="1.1669" stroke-linecap="round" stroke-linejoin="round"/>
<path fill-rule="evenodd" clip-rule="evenodd" d="M110.773 123.982C112.011 123.982 113.002 125.051 113.002 126.352C113.002 127.653 112.011 128.698 110.773 128.698C109.535 128.698 108.521 127.653 108.521 126.352C108.521 125.051 109.535 123.982 110.773 123.982ZM134.505 120.334C135.743 120.334 136.734 121.403 136.734 122.704C136.734 124.005 135.743 125.074 134.505 125.074C133.266 125.074 132.253 124.005 132.253 122.704C132.253 121.403 133.266 120.334 134.505 120.334ZM122.414 122.379C123.652 122.379 124.643 123.424 124.643 124.749C124.643 126.05 123.652 127.095 122.414 127.095C121.175 127.095 120.162 126.05 120.162 124.749C120.162 123.424 121.175 122.379 122.414 122.379Z" fill="black"/>
<path fill-rule="evenodd" clip-rule="evenodd" d="M249.289 116.266L238.639 127.837C238.639 127.837 216.709 101.164 214.029 96.5401C211.35 91.9164 210.449 90.0809 210.449 90.0809C210.449 90.0809 210.134 79.4162 211.012 75.3966C211.913 71.3538 214.885 66.2422 214.187 64.8017C213.489 63.3844 210.855 62.5944 208.536 65.8937C206.216 69.2162 203.987 73.7005 203.987 73.7005C203.987 73.7005 192.842 59.6204 189.622 58.0172C186.425 56.414 184.466 57.9707 184.466 57.9707C184.466 57.9707 182.44 55.5776 179.535 57.4596C176.653 59.3648 180.639 62.3853 183.656 67.5898C186.65 72.7944 188.654 77.4877 188.654 77.4877C188.654 77.4877 178.049 66.3119 175.55 65.522C173.073 64.732 170.957 66.7766 173.681 70.0992C176.406 73.4217 178.049 75.3037 180.188 78.1151C182.35 80.9265 183.363 83.157 183.363 83.157C183.363 83.157 176.248 79.3697 172.173 79.0445C168.12 78.6959 169.494 82.762 171.407 83.3661C173.321 83.9469 182.395 89.3606 186.448 92.6367C190.523 95.9127 192.73 98.515 192.73 98.515L221.099 146.773C223.711 151.188 230.871 158.692 243.3 152.628C255.751 146.587 271.534 133.831 271.534 133.831L249.289 116.266Z" fill="white" stroke="black" stroke-width="1.1669" stroke-linecap="round" stroke-linejoin="round"/>
<path fill-rule="evenodd" clip-rule="evenodd" d="M218.397 379.932C218.397 379.932 215.875 405.583 212.228 417.502C208.603 429.422 204.01 442.828 217.924 441.178C231.862 439.552 238.661 423.218 241.678 412.925C244.673 402.632 246.114 395.941 246.114 395.941L244.358 376.005L218.397 379.932Z" fill="white" stroke="black" stroke-width="1.1669" stroke-linecap="round" stroke-linejoin="round"/>
<path fill-rule="evenodd" clip-rule="evenodd" d="M244.448 379.652C244.448 379.652 243.278 395.15 240.598 409.811C237.919 424.472 230.917 444.895 244.899 443.78C258.904 442.664 266.897 422.032 269.373 408.068C271.828 394.104 272.435 388.853 272.435 388.853L271.22 371.567L244.448 379.652Z" fill="white" stroke="black" stroke-width="1.1669" stroke-linecap="round" stroke-linejoin="round"/>
<path fill-rule="evenodd" clip-rule="evenodd" d="M339.868 192.359C341.331 192.034 343.448 209.134 342.142 225.259C340.836 241.384 328.97 254.465 316.429 264.363C303.91 274.261 277.072 284.182 277.072 284.182C276.216 314.549 273.739 345.544 273.334 375.656C270.745 388.273 247.914 392.06 242.825 381.186C242.825 381.186 235.598 386.809 226.322 386.971C217.045 387.157 214.681 382.789 214.681 382.789C211.979 359.485 192.278 264.177 207.814 244.358C225.601 221.727 255.232 207.183 275.518 198.47L339.868 192.359Z" fill="#D7F0F7"/>
<path d="M247.419 242.941C245.55 244.103 231.073 253.606 232.941 277.351C234.81 301.12 242.488 377.283 242.623 378.514" stroke="black" stroke-width="1.1669" stroke-linecap="round" stroke-linejoin="round"/>
<path fill-rule="evenodd" clip-rule="evenodd" d="M315.981 94.5889L332.62 88.0833C332.62 88.0833 350.069 92.0796 356.171 107.089C362.25 122.122 364.142 131.439 364.142 131.439L341.761 142.684C341.761 142.684 334.534 164.409 337.776 178.349C341.041 192.29 342.572 192.871 340.793 196.565C338.992 200.26 330.548 209.646 305.488 213.015C280.451 216.361 269.869 203.954 269.058 202.095C268.248 200.26 272.706 180.185 272.548 171.472C272.39 162.736 271.242 154.511 271.242 154.511C271.242 154.511 265.478 150.329 263.609 146.379C261.741 142.429 264.33 133.46 264.33 133.46L245.529 118.033C245.529 118.033 253.68 106.346 258.881 100.885C264.082 95.4254 269.981 90.8946 279.033 89.0823C279.033 89.0823 280.383 88.9662 282.725 88.8035C294.005 88.85 315.981 94.5889 315.981 94.5889Z" fill="black" stroke="black" stroke-width="0.466762" stroke-linecap="round" stroke-linejoin="round"/>
<path d="M243.48 133.6L238.639 127.838" stroke="black" stroke-width="1.1669" stroke-linecap="round" stroke-linejoin="round"/>
<path d="M195.904 85.551C195.904 85.551 200.047 81.5082 201.556 78.7898C203.064 76.0481 203.987 73.7014 203.987 73.7014" stroke="black" stroke-width="1.1669" stroke-linecap="round" stroke-linejoin="round"/>
<path d="M195.139 73.8868C192.662 69.6582 188.497 62.8272 184.467 57.9712" stroke="black" stroke-width="1.1669" stroke-linecap="round" stroke-linejoin="round"/>
<path d="M270.521 109.412C270.521 109.412 269.823 116.754 268.697 121.285C268.022 123.911 266.806 127.164 265.883 129.464" stroke="white" stroke-width="1.1669" stroke-linecap="round" stroke-linejoin="round"/>
<path fill-rule="evenodd" clip-rule="evenodd" d="M195.815 170.984L193.113 173.633L211.283 234.995L295.469 247.542L336.943 213.805L286.666 208.531L278.92 182.346L195.815 170.984Z" fill="#4E5CDF"/>
<path d="M195.859 174.005L276.375 185.088L294.433 244.661" stroke="white" stroke-width="1.1669" stroke-linecap="round" stroke-linejoin="round"/>
<path fill-rule="evenodd" clip-rule="evenodd" d="M268.54 44.3556C269.666 50.5593 270.837 55.88 272.188 60.2713C273.268 63.4312 275.002 67.2649 277.569 70.5642C283.063 77.581 291.303 77.186 291.303 77.186L291.799 85.5737L279.032 89.0821C279.032 89.0821 271.129 118.474 296.347 117.126C321.564 115.779 332.619 88.083 332.619 88.083L313.909 83.9008C313.909 83.9008 312.04 70.2854 311.883 65.6849C311.725 61.0613 312.04 57.8781 312.04 57.8781C312.04 57.8781 316.926 57.2508 318.232 51.0239C319.515 44.8203 317.466 41.521 316.566 40.4522C328.544 -0.951693 259.016 -8.24733 268.54 44.3556Z" fill="white"/>
<path fill-rule="evenodd" clip-rule="evenodd" d="M291.302 77.1861C291.302 77.1861 283.061 77.5811 277.568 70.5642C275.001 67.2649 273.267 63.4313 272.186 60.2714C270.835 55.88 269.665 50.5593 268.539 44.3557C268.021 41.5443 267.751 38.9188 267.683 36.456C267.931 35.8519 272.547 24.8619 282.724 20.5636C282.724 20.5636 282.543 29.718 290.514 34.5972C298.485 39.4532 305.397 39.1279 305.397 39.1279C305.397 39.1279 305.284 43.4031 305.78 46.1215C306.252 48.8632 307.716 50.234 307.964 50.0249C308.211 49.8158 307.198 42.8455 311.138 40.5917C315.079 38.3147 316.565 40.4523 316.565 40.4523C317.465 41.5211 319.514 44.8204 318.231 51.024C316.925 57.2509 312.039 57.8782 312.039 57.8782C312.039 57.8782 311.724 61.0613 311.881 65.685C312.016 69.4722 313.3 79.3469 313.75 82.7391C327.507 78.8357 334.6 70.9128 334.6 70.9128C334.262 50.5593 326.561 -9.78073 295.94 4.02057C295.94 4.02057 285.853 -3.85593 275.429 5.27524C265.026 14.4296 260.703 31.3908 258.767 50.2573C256.808 69.1469 252.98 80.5551 252.98 80.5551C252.98 80.5551 256.043 81.9956 258.564 78.9751C261.086 75.9547 264.734 67.1255 264.734 67.1255C264.734 67.1255 263.36 81.4845 265.792 83.3432C267.458 84.5979 279.166 85.8526 291.797 85.504L291.302 77.1861Z" fill="#4E5CDF"/>
<path d="M311.589 53.557C311.589 53.557 310.733 50.7456 311.814 46.6331C312.917 42.5206 315.394 43.2641 315.394 43.2641" stroke="black" stroke-width="1.1669" stroke-linecap="round" stroke-linejoin="round"/>
<path d="M315.057 49.8856L311.68 47.2136" stroke="black" stroke-width="1.1669" stroke-linecap="round" stroke-linejoin="round"/>
<path fill-rule="evenodd" clip-rule="evenodd" d="M273.651 45.5408C274.597 45.1923 275.655 45.8196 276.016 46.9117C276.398 48.0269 275.948 49.1886 275.002 49.5372C274.057 49.8625 272.999 49.2351 272.638 48.1431C272.255 47.0278 272.706 45.8661 273.651 45.5408ZM290.336 46.354C291.281 46.0055 292.339 46.6328 292.722 47.7481C293.082 48.8401 292.632 50.0019 291.709 50.3504C290.763 50.6757 289.705 50.0716 289.322 48.9563C288.962 47.8643 289.412 46.6793 290.336 46.354Z" fill="black"/>
<path d="M281.531 45.9353C281.531 45.9353 281.171 52.1854 280.811 54.9271C280.45 57.6455 279.955 59.4578 279.955 59.4578C281.419 59.8528 283.242 59.8528 284.796 59.3649" stroke="black" stroke-width="1.1669" stroke-linecap="round" stroke-linejoin="round"/>
<path d="M275.159 54.1361C278.786 52.353 280.216 47.5792 278.352 43.4735C276.488 39.3678 272.037 37.4849 268.41 39.268C264.782 41.0511 263.353 45.8249 265.216 49.9306C267.08 54.0363 271.532 55.9192 275.159 54.1361Z" stroke="black" stroke-width="1.58139" stroke-linecap="round" stroke-linejoin="round"/>
<path d="M295.344 54.1143C298.972 52.3312 300.401 47.5574 298.538 43.4517C296.674 39.346 292.223 37.4632 288.595 39.2463C284.968 41.0294 283.538 45.8032 285.402 49.9089C287.266 54.0146 291.717 55.8974 295.344 54.1143Z" stroke="black" stroke-width="1.58139" stroke-linecap="round" stroke-linejoin="round"/>
<path d="M309.226 42.5898L299.297 46.1447" stroke="black" stroke-width="1.1669" stroke-linecap="round" stroke-linejoin="round"/>
<path d="M279.168 46.7256L284.617 46.8657" stroke="black" stroke-width="1.1669" stroke-linecap="round" stroke-linejoin="round"/>
<path d="M306.636 67.0564C303.935 72.3539 299.116 75.6067 293.465 76.8614" stroke="black" stroke-width="1.1669" stroke-linecap="round" stroke-linejoin="round"/>
<path d="M289.411 69.0322C290.561 68.636 291.161 67.1542 290.751 65.7226C290.34 64.2909 289.074 63.4515 287.924 63.8476C286.773 64.2438 286.173 65.7255 286.583 67.1572C286.994 68.5889 288.26 69.4283 289.411 69.0322Z" fill="black" stroke="black" stroke-width="1.43924" stroke-linecap="round" stroke-linejoin="round"/>
<path d="M284.525 63.9668L288.195 63.78" stroke="black" stroke-width="1.1669" stroke-linecap="round" stroke-linejoin="round"/>
<path d="M332.643 127.93L337.281 142.87" stroke="white" stroke-width="1.1669" stroke-linecap="round" stroke-linejoin="round"/>
<path fill-rule="evenodd" clip-rule="evenodd" d="M340.051 143.358L345.545 166.918L318.211 200.143C318.211 200.143 300.806 206.765 298.442 209.135C296.1 211.481 291.462 216.477 290.877 217.197C290.314 217.917 291.53 219.126 292.588 219.335C293.646 219.544 294.502 219.335 294.502 219.335C294.502 219.335 291.079 225.422 291.665 226.839C292.228 228.28 294.952 226.979 294.952 226.979C294.952 226.979 295.2 229.326 296.528 229.418C297.879 229.488 299.906 227.56 299.906 227.56C299.906 227.56 300.311 229.488 302.562 229.116C304.792 228.745 305.917 226.421 305.917 226.421C305.917 226.421 307.358 229.837 310.646 226.398C318.458 218.219 316.072 222.03 324.177 215.385C328.095 212.202 330.369 209.274 330.369 209.274C330.369 209.274 367.115 188.293 368.173 171.077C369.231 153.883 362.454 132.275 362.454 132.275L340.051 143.358Z" fill="white" stroke="black" stroke-width="1.1669" stroke-linecap="round" stroke-linejoin="round"/>
<path d="M313.639 216.477C312.243 217.476 308.415 221.309 305.916 226.421" stroke="black" stroke-width="1.1669" stroke-linecap="round" stroke-linejoin="round"/>
<path d="M308.82 215.292C305.916 217.778 301.548 223.169 299.904 227.56" stroke="black" stroke-width="1.1669" stroke-linecap="round" stroke-linejoin="round"/>
<path d="M304.744 214.619C299.88 218.847 297.291 222.077 294.949 226.979" stroke="black" stroke-width="1.1669" stroke-linecap="round" stroke-linejoin="round"/>
<path d="M300.849 212.83C298.71 214.572 295.964 217.012 294.5 219.335" stroke="black" stroke-width="1.1669" stroke-linecap="round" stroke-linejoin="round"/>
<path d="M294.68 5.11255C294.68 5.11255 291.551 6.34398 288.376 9.59681C285.201 12.8729 283.58 16.7066 283.58 16.7066" stroke="white" stroke-width="1.1669" stroke-linecap="round" stroke-linejoin="round"/>
<path d="M291.236 18.6348C291.236 18.6348 293.173 27.6962 302.359 31.1349C311.568 34.5737 314.81 33.6443 314.81 33.6443" stroke="white" stroke-width="1.1669" stroke-linecap="round" stroke-linejoin="round"/>
<path d="M301.953 20.8892C301.953 20.8892 303.417 25.2572 308.865 26.8604C314.314 28.4404 316.678 28.6263 316.678 28.6263" stroke="white" stroke-width="1.1669" stroke-linecap="round" stroke-linejoin="round"/>
<path d="M313.188 21.9802C313.188 21.9802 316.272 22.4914 318.704 24.6754C321.158 26.8595 322.059 27.9515 322.059 27.9515" stroke="white" stroke-width="1.1669" stroke-linecap="round" stroke-linejoin="round"/>
<path d="M325.707 55.5552C325.707 55.5552 326.675 60.3415 326.675 64.5469C326.675 68.7291 326.675 68.7291 326.675 68.7291V68.3109" stroke="white" stroke-width="1.1669" stroke-linecap="round" stroke-linejoin="round"/>
<path d="M321.316 59.342C321.316 59.342 321.654 62.5949 321.97 64.7092C322.285 66.8003 322.285 66.963 322.285 66.963" stroke="white" stroke-width="1.1669" stroke-linecap="round" stroke-linejoin="round"/>
<path d="M271.961 72.772L271.871 77.7209" stroke="white" stroke-width="1.1669" stroke-linecap="round" stroke-linejoin="round"/>
<path d="M350.429 166.918H345.543" stroke="black" stroke-width="1.1669" stroke-linecap="round" stroke-linejoin="round"/>
<path d="M291.572 81.0429L291.888 85.6898L283.895 87.897M322.734 85.9453L313.885 83.9704C313.885 83.9704 312.039 70.2853 311.881 65.6848C311.724 61.0612 312.039 57.878 312.039 57.878C312.039 57.878 316.925 57.2507 318.231 51.0239C319.514 44.8202 317.465 41.5209 316.565 40.4521" stroke="black" stroke-width="1.1669" stroke-linecap="round" stroke-linejoin="round"/>
<path d="M276.15 307.905C276.51 299.959 276.848 292.036 277.073 284.183C277.073 284.183 303.912 274.262 316.43 264.364C328.972 254.466 340.837 241.385 342.143 225.26C343.449 209.135 341.963 201.793 341.963 201.793M213.737 237.574C211.643 239.758 209.661 242.012 207.815 244.359C201.736 252.119 201.06 271.45 202.636 293.5L213.737 237.574Z" stroke="black" stroke-width="1.1669" stroke-linecap="round" stroke-linejoin="round"/>
<path fill-rule="evenodd" clip-rule="evenodd" d="M375.262 243.291C375.262 243.291 370.151 246.219 366.729 253.608C363.329 260.996 361.28 271.823 361.28 271.823C361.28 271.823 352.252 282.325 351.599 284.417C350.946 286.508 358.511 287.902 358.511 287.902C358.511 287.902 357.092 292.688 357.182 293.222C357.25 293.78 369.138 294.57 370.106 295.081C370.061 296.15 360.627 300.774 358.916 301.959C357.205 303.12 360.425 306.815 360.425 306.815C360.425 306.815 356.372 320.244 360.582 321.847C364.815 323.451 382.467 320.43 382.467 320.43L383.526 334.44L417.434 327.377L414.845 300.518C414.845 300.518 431.912 280.211 425.9 259.741C419.866 239.272 391.249 233.556 375.262 243.291Z" fill="white" stroke="black" stroke-width="1.1669" stroke-linecap="round" stroke-linejoin="round"/>
<path d="M371.206 276.856C372.473 276.986 373.626 275.776 373.781 274.155C373.937 272.534 373.036 271.115 371.769 270.985C370.502 270.856 369.349 272.065 369.193 273.687C369.038 275.308 369.939 276.727 371.206 276.856Z" fill="black"/>
<path d="M369.004 264.133C369.004 264.133 370.557 263.181 373.394 263.854C376.254 264.528 376.929 266.038 376.929 266.038" stroke="black" stroke-width="1.1669" stroke-linecap="round" stroke-linejoin="round"/>
<path fill-rule="evenodd" clip-rule="evenodd" d="M232.918 303.213C232.918 303.213 244.919 373.846 243.545 373.985C242.194 374.125 336.265 351.82 336.265 351.82L326.11 280.885L232.918 303.213Z" fill="#4E5CDF"/>
<path fill-rule="evenodd" clip-rule="evenodd" d="M364.567 233.904C363.103 245.15 369.047 248.008 374.654 249.727C380.26 251.446 389.829 251.377 389.244 258.765C388.681 266.131 386.407 266.897 388.343 270.917C390.302 274.96 387.465 282.163 390.392 282.767C393.319 283.347 393.072 274.797 401.537 278.05C409.981 281.326 405.838 293.245 401.943 296.429C398.025 299.635 397.305 298.868 398.273 303.399C399.263 307.93 401.763 314.389 405.433 314.644C409.103 314.9 407.954 311.554 412.593 311.879C417.231 312.205 418.041 310.88 420.878 304.654C423.738 298.45 429.997 298.543 432.587 293.757C435.198 288.97 433.892 283.859 436.662 279.142C439.431 274.449 447.807 268.408 445.195 261.902C442.606 255.396 437.472 250.866 437.563 247.845C437.63 244.825 437.608 235.972 431.303 235.717C424.999 235.461 417.951 238.83 413.111 233.068C408.292 227.329 404.172 220.94 398.475 224.727C388.231 231.511 366.751 217.152 364.567 233.904Z" fill="black" stroke="black" stroke-width="0.466762" stroke-linecap="round" stroke-linejoin="round"/>
<path d="M396.383 293.826C396.383 293.826 394.762 287.995 397.193 284.556C399.648 281.117 402.687 283.417 402.687 283.417" stroke="black" stroke-width="1.1669" stroke-linecap="round" stroke-linejoin="round"/>
<path d="M401.11 290.109L396.742 285.323" stroke="black" stroke-width="1.1669" stroke-linecap="round" stroke-linejoin="round"/>
<path fill-rule="evenodd" clip-rule="evenodd" d="M347.208 361.74C347.208 361.74 333.812 359.951 332.371 358.534C330.93 357.116 329.691 353.98 331.965 351.749C334.262 349.519 340.048 344.128 340.048 344.128C340.048 344.128 329.849 336.461 326.742 333.998C323.612 331.535 319.762 329.142 320.437 326.795C321.135 324.425 326.584 327.376 330.885 329.165C335.185 330.954 344.304 335.23 344.304 335.23C344.304 335.23 345.835 333.022 347.704 332.348C349.595 331.675 350.203 332.418 351.059 331.93C351.937 331.442 353.67 328.91 354.976 329.514C356.282 330.118 357.115 330.769 358.421 329.886C359.705 328.979 362.069 328.84 364.05 330.304C366.031 331.744 375.488 345.801 375.308 344.593C375.105 343.362 347.208 361.74 347.208 361.74Z" fill="white" stroke="black" stroke-width="1.1669" stroke-linecap="round" stroke-linejoin="round"/>
<path d="M241.926 307.581L305.848 292.641" stroke="black" stroke-width="1.1669" stroke-linecap="round" stroke-linejoin="round"/>
<path d="M312.309 288.947L318.726 292.873" stroke="black" stroke-width="1.1669" stroke-linecap="round" stroke-linejoin="round"/>
<path d="M317.691 287.483L313.188 294.337" stroke="black" stroke-width="1.1669" stroke-linecap="round" stroke-linejoin="round"/>
<path fill-rule="evenodd" clip-rule="evenodd" d="M244.223 317.084L250.797 356.861L284.953 348.962L278.514 308.929L244.223 317.084Z" fill="white"/>
<path fill-rule="evenodd" clip-rule="evenodd" d="M287.971 306.582L288.781 310.95L320.911 303.143L320.168 298.613L287.971 306.582Z" fill="white"/>
<path fill-rule="evenodd" clip-rule="evenodd" d="M290.086 317.898L290.897 322.266L312.376 317.061L311.633 312.531L290.086 317.898Z" fill="white"/>
<path d="M292.562 330.234L318.951 323.938" stroke="white" stroke-width="1.1669" stroke-linecap="round" stroke-linejoin="round"/>
<path d="M294.025 337.136L316.181 331.722" stroke="white" stroke-width="1.1669" stroke-linecap="round" stroke-linejoin="round"/>
<path d="M295.129 344.362L320.369 338.228" stroke="white" stroke-width="1.1669" stroke-linecap="round" stroke-linejoin="round"/>
<path fill-rule="evenodd" clip-rule="evenodd" d="M270.565 368.967C270.565 368.967 263.495 360.742 260.32 349.914C257.146 339.087 256.583 330.699 253.903 331.28C251.202 331.861 250.323 335.718 250.323 340.435C250.323 345.128 250.954 349.078 250.954 349.078L238.75 338.553L237.737 332.302C237.737 332.302 231.275 334.487 230.059 337.344C228.844 340.202 230.622 345.314 230.622 345.314C230.622 345.314 228.506 346.522 228.506 349.496C228.506 352.493 230.96 355.165 230.96 355.165C230.96 355.165 229.316 357.396 229.474 359.44C229.654 361.508 231.636 363.855 231.636 363.855C231.636 363.855 230.285 370.849 234.157 373.799C238.03 376.75 249.198 386.044 249.198 386.044L270.565 368.967Z" fill="white" stroke="black" stroke-width="1.1669" stroke-linecap="round" stroke-linejoin="round"/>
<path fill-rule="evenodd" clip-rule="evenodd" d="M333.09 373.568C333.09 373.568 343.335 353.772 356.124 347.801C359.591 346.197 365.941 344.269 373.663 342.341C373.663 342.341 375.014 333.651 378.504 332.233C382.017 330.816 413.899 325.681 413.899 325.681C413.899 325.681 422.5 323.59 424.459 325.612C426.418 327.61 429.029 331.792 429.029 331.792C431.484 331.49 433.6 331.281 435.244 331.188C450.036 330.351 462.735 334.371 466.158 358.21C469.152 379.237 466.36 439.368 465.64 453.309H295.647C275.856 432.583 263.134 415.855 245.234 385.975C246.72 366.481 266.219 362.578 270.249 366.179L318.545 409.163C318.545 409.163 330.906 377.169 333.09 373.568Z" fill="#4E5CDF"/>
<path d="M311.904 427.03L318.546 409.163" stroke="black" stroke-width="1.1669" stroke-linecap="round" stroke-linejoin="round"/>
<path d="M369.002 404.19L352.408 453.308" stroke="black" stroke-width="1.1669" stroke-linecap="round" stroke-linejoin="round"/>
<path d="M249.355 392.782C249.355 392.782 249.873 382.095 257.821 375.612C265.792 369.13 275.113 370.524 275.113 370.524" stroke="#A94D4D" stroke-width="1.1669" stroke-linecap="round" stroke-linejoin="round"/>
<path d="M246.137 380.77L250.775 386.16" stroke="#A94D4D" stroke-width="1.1669" stroke-linecap="round" stroke-linejoin="round"/>
<path d="M248.791 374.776L253.925 379.864" stroke="#A94D4D" stroke-width="1.1669" stroke-linecap="round" stroke-linejoin="round"/>
<path d="M253.295 369.733L258.293 375.24" stroke="#A94D4D" stroke-width="1.1669" stroke-linecap="round" stroke-linejoin="round"/>
<path d="M258.924 366.411L263.517 372.22" stroke="#A94D4D" stroke-width="1.1669" stroke-linecap="round" stroke-linejoin="round"/>
<path d="M265.342 364.993L269.552 370.616" stroke="#A94D4D" stroke-width="1.1669" stroke-linecap="round" stroke-linejoin="round"/>
<path d="M235.869 336.439L238.751 338.553" stroke="black" stroke-width="1.1669" stroke-linecap="round" stroke-linejoin="round"/>
<path d="M346.962 336.439L344.305 335.23" stroke="black" stroke-width="1.1669" stroke-linecap="round" stroke-linejoin="round"/>
<path d="M400.277 236.483C400.277 236.483 405.456 236.019 408.496 238.087C411.513 240.154 412.638 243.965 412.638 243.965" stroke="white" stroke-width="1.1669" stroke-linecap="round" stroke-linejoin="round"/>
<path d="M421.375 273.682C421.375 273.682 422.433 279.63 421.037 282.163C419.663 284.672 417.885 285.764 417.885 285.764" stroke="white" stroke-width="1.1669" stroke-linecap="round" stroke-linejoin="round"/>
<path d="M427.521 279.165C427.521 279.165 429.885 274.379 429.48 270.871C429.075 267.339 426.891 264.435 426.891 264.435" stroke="white" stroke-width="1.1669" stroke-linecap="round" stroke-linejoin="round"/>
<path d="M400.324 244.732C399.243 241.92 394.853 241.177 391.926 241.92" stroke="white" stroke-width="1.1669" stroke-linecap="round" stroke-linejoin="round"/>
<path d="M380.465 341.039C398.297 337.066 411.041 334.719 429.031 331.792" stroke="#A94D4D" stroke-width="1.1669" stroke-linecap="round" stroke-linejoin="round"/>
<path d="M40.0952 170.056L37.6635 146.891M37.6635 146.891C34.4438 145.357 27.1712 141.361 25.7527 136.087C23.9064 129.279 29.5354 127.49 29.5354 127.49L37.6635 146.891ZM77.8764 98.749C77.8764 98.749 83.0099 124.748 83.4603 134.948C83.9106 145.172 81.0286 152.793 77.6062 155.813C74.1613 158.857 68.735 159.716 68.735 159.716" stroke="black" stroke-width="1.1669" stroke-linecap="round" stroke-linejoin="round"/>
<path fill-rule="evenodd" clip-rule="evenodd" d="M35.7051 325.75C35.7051 325.75 40.4108 362.182 53.4249 393.386C62.1384 414.274 75.3551 441.156 83.1455 456.677H181.831L137.858 303.259L35.7051 325.75Z" fill="black"/>
<path fill-rule="evenodd" clip-rule="evenodd" d="M43.4272 172.519L37.4831 171.659C37.4831 171.659 -0.0954951 188.969 0.0846299 217.826C0.242239 246.707 4.79039 261.461 11.6351 272.706C18.4574 283.952 28.5444 289.505 28.5444 289.505L31.629 327.261C31.629 327.261 31.4714 336.16 37.7307 336.322C43.9901 336.508 90.3497 336.833 115.567 326.424C140.785 316.015 142.879 311.484 142.068 305.606C141.258 299.728 131.824 263.807 131.824 263.807C131.824 263.807 154.429 255.257 151.029 235.275C147.607 215.317 129.482 185.344 115.725 174.517C101.99 163.69 74.3186 166.64 74.3186 166.64C74.3186 166.64 59.4583 179.141 43.4272 172.519Z" fill="#D7F0F7"/>
<path fill-rule="evenodd" clip-rule="evenodd" d="M77.8764 98.749C77.8764 98.749 83.0099 124.748 83.4603 134.948C83.9106 145.172 81.0286 152.793 77.6062 155.813C74.1613 158.857 68.735 159.716 68.735 159.716L70.784 166.547L74.3189 166.64C74.3189 166.64 77.2459 184.229 58.6255 186.599C40.0051 188.945 37.4834 171.659 37.4834 171.659L40.0952 170.056L37.6635 146.891C34.4438 145.357 27.1712 141.361 25.7527 136.087C23.9064 129.279 29.5354 127.49 29.5354 127.49C29.5354 127.49 17.4219 101.375 45.2513 92.4989C73.058 83.6234 77.8764 98.749 77.8764 98.749Z" fill="white"/>
<path fill-rule="evenodd" clip-rule="evenodd" d="M39.3744 127.025C39.532 128.443 39.6897 129.674 39.7347 130.58C39.9373 134.228 37.9559 133.136 36.7176 130.859C35.4792 128.582 32.8449 127.118 29.5351 127.49C29.5351 127.49 23.9062 129.279 25.7525 136.087C27.5988 142.918 37.6632 146.891 37.6632 146.891C37.6632 146.891 38.2036 152.211 38.789 157.718C32.1019 154.744 24.8519 146.589 17.7594 131.788C10.667 116.988 11.7928 109.437 16.6111 99.2599C21.4295 89.06 28.8596 86.2951 40.8605 83.8555C52.8613 81.4158 67.2037 78.5347 67.2037 78.5347C80.4654 76.3972 85.9818 72.2614 88.2784 76.1184C90.5975 79.9753 84.6759 84.0181 84.6759 84.0181C84.6759 84.0181 92.6914 84.0181 93.6146 88.2933C94.5377 92.5684 83.6627 95.403 83.6627 95.403C83.6627 95.403 90.1246 98.5164 88.6386 101.281C87.1751 104.023 79.0244 104.813 79.0244 104.813C79.0244 104.813 75.6246 104.79 69.5679 104.883C67.2938 104.906 64.5019 104.674 61.4848 104.511C61.9126 105.278 62.0252 106.23 61.3497 107.299C59.5034 110.273 46.7596 107.671 46.7596 107.671C46.7596 107.671 45.4537 113.898 38.8566 113.131C37.8209 116.825 38.2487 121.588 39.3744 127.025Z" fill="black" stroke="black" stroke-width="0.466762" stroke-linecap="round" stroke-linejoin="round"/>
<path d="M57.2921 128.977C56.2542 129.234 55.1275 128.215 54.7754 126.7C54.4234 125.186 54.9794 123.75 56.0172 123.493C57.0551 123.236 58.1819 124.256 58.5339 125.77C58.8859 127.285 58.33 128.72 57.2921 128.977Z" fill="black"/>
<path d="M75.8351 123.248C74.7972 123.505 73.6704 122.485 73.3184 120.971C72.9664 119.457 73.5223 118.021 74.5602 117.764C75.5981 117.507 76.7248 118.526 77.0769 120.041C77.4289 121.555 76.8729 122.991 75.8351 123.248Z" fill="black"/>
<path d="M67.3622 121.821C67.3622 121.821 72.0679 132.23 70.9647 134.624C69.8389 137.017 66.6191 136.506 66.6191 136.506" stroke="black" stroke-width="1.1669" stroke-linecap="round" stroke-linejoin="round"/>
<path d="M28.7246 132.113C33.4304 132.717 37.2806 137.062 37.956 141.756" stroke="black" stroke-width="1.1669" stroke-linecap="round" stroke-linejoin="round"/>
<path d="M31.4277 137.992L34.67 135.343" stroke="black" stroke-width="1.1669" stroke-linecap="round" stroke-linejoin="round"/>
<path d="M56.7569 117.709C56.7569 117.709 55.4285 117.732 53.3345 118.545C51.2406 119.358 50.2949 120.404 50.2949 120.404" stroke="black" stroke-width="1.1669" stroke-linecap="round" stroke-linejoin="round"/>
<path d="M76.5037 113.062C74.117 112.667 71.7078 113.643 69.7715 115.013" stroke="black" stroke-width="1.1669" stroke-linecap="round" stroke-linejoin="round"/>
<path d="M77.5598 92.7311C73.8673 91.0582 68.396 89.5479 61.3711 89.5015" stroke="white" stroke-width="1.1669" stroke-linecap="round" stroke-linejoin="round"/>
<path d="M75.2861 83.6007C71.3008 83.3684 68.7791 83.2987 64.0508 83.9725" stroke="white" stroke-width="1.1669" stroke-linecap="round" stroke-linejoin="round"/>
<path d="M65.1543 96.8658C62.9478 95.8668 60.1333 94.9142 56.7109 94.3101" stroke="white" stroke-width="1.1669" stroke-linecap="round" stroke-linejoin="round"/>
<path d="M29.0388 122.866C28.8137 121.031 28.6337 118.94 28.6562 116.825C28.6562 115.826 28.7012 114.804 28.8137 113.805" stroke="white" stroke-width="1.1669" stroke-linecap="round" stroke-linejoin="round"/>
<path d="M24.5362 120.125C24.2436 117.429 24.1086 114.153 24.4687 111.086" stroke="white" stroke-width="1.1669" stroke-linecap="round" stroke-linejoin="round"/>
<path d="M19.0649 118.894C18.8399 117.081 18.7273 115.176 18.7948 113.317" stroke="white" stroke-width="1.1669" stroke-linecap="round" stroke-linejoin="round"/>
<path d="M66.8442 148.912C68.2867 148.912 69.456 147.435 69.456 145.613C69.456 143.791 68.2867 142.313 66.8442 142.313C65.4018 142.313 64.2324 143.791 64.2324 145.613C64.2324 147.435 65.4018 148.912 66.8442 148.912Z" fill="black" stroke="black" stroke-width="1.1669" stroke-linecap="round" stroke-linejoin="round"/>
<path d="M70.6259 141.71C68.8697 141.431 66.7307 141.965 65.8301 142.569" stroke="black" stroke-width="1.1669" stroke-linecap="round" stroke-linejoin="round"/>
<path fill-rule="evenodd" clip-rule="evenodd" d="M39.0803 221.869L33.6991 251.237C33.6991 251.237 27.845 253.677 25.1657 254.351C22.4863 255.025 21.6757 253.305 21.6757 253.305C21.6757 253.305 19.5818 253.84 18.7262 252.701C17.8931 251.586 18.1183 249.309 18.1183 249.309C18.1183 249.309 16.6547 248.774 16.4296 247.009C16.1819 245.243 16.8574 242.85 16.8574 242.85C16.8574 242.85 14.921 234.88 22.3962 228.072C29.8714 221.288 39.0803 221.869 39.0803 221.869Z" fill="white"/>
<path d="M30.729 244.825C30.729 244.825 26.3835 247.381 24.6723 249.216C22.9611 251.075 21.6777 253.305 21.6777 253.305" stroke="black" stroke-width="1.1669" stroke-linecap="round" stroke-linejoin="round"/>
<path d="M31.3809 235.717C31.3809 235.717 26.6751 238.784 23.703 241.758C20.731 244.732 18.1191 249.309 18.1191 249.309" stroke="black" stroke-width="1.1669" stroke-linecap="round" stroke-linejoin="round"/>
<path d="M31.6296 228.862C31.6296 228.862 27.6894 229.791 24.0193 233.021C20.3718 236.251 16.8594 242.849 16.8594 242.849" stroke="black" stroke-width="1.1669" stroke-linecap="round" stroke-linejoin="round"/>
<path d="M131.824 263.807C131.824 263.807 120.476 268.477 103.071 268.151C85.689 267.803 70.1758 260.926 70.1758 260.926" stroke="black" stroke-width="1.1669" stroke-linecap="round" stroke-linejoin="round"/>
<path d="M136.597 228.793L72.9453 229.188" stroke="black" stroke-width="1.1669" stroke-linecap="round" stroke-linejoin="round"/>
<path d="M111.379 194.126L121.623 228.885" stroke="black" stroke-width="1.1669" stroke-linecap="round" stroke-linejoin="round"/>
<path d="M30.8633 208.904L32.2367 222.751" stroke="black" stroke-width="1.1669" stroke-linecap="round" stroke-linejoin="round"/>
<path d="M45.3418 193.243C45.3418 193.243 56.9824 195.544 63.1967 197.007C69.411 198.494 73.779 199.703 73.779 199.703" stroke="#6CA3B7" stroke-width="1.1669" stroke-linecap="round" stroke-linejoin="round"/>
<path d="M51.3526 188.364L50.4062 194.266" stroke="#6CA3B7" stroke-width="1.1669" stroke-linecap="round" stroke-linejoin="round"/>
<path d="M55.4744 189.27L54.6406 195.148" stroke="#6CA3B7" stroke-width="1.1669" stroke-linecap="round" stroke-linejoin="round"/>
<path d="M60.1569 190.27L59.3457 196.148" stroke="#6CA3B7" stroke-width="1.1669" stroke-linecap="round" stroke-linejoin="round"/>
<path d="M64.616 191.246L63.7598 197.147" stroke="#6CA3B7" stroke-width="1.1669" stroke-linecap="round" stroke-linejoin="round"/>
<path d="M68.5547 192.128L68.0371 198.193" stroke="#6CA3B7" stroke-width="1.1669" stroke-linecap="round" stroke-linejoin="round"/>
<path d="M110.412 341.201V355.955L137.904 456.677" stroke="white" stroke-width="1.1669" stroke-linecap="round" stroke-linejoin="round"/>
<path d="M50.4961 344.64C50.4961 344.64 53.1755 346.638 57.2283 348.334C61.3036 350.007 65.1312 351.169 65.1312 351.169" stroke="white" stroke-width="1.1669" stroke-linecap="round" stroke-linejoin="round"/>
<path d="M52.5918 353.957C52.5918 353.957 55.8115 355.908 57.4777 356.559C59.1439 357.186 59.7293 357.604 59.7293 357.604" stroke="white" stroke-width="1.1669" stroke-linecap="round" stroke-linejoin="round"/>
<path d="M49.9336 154.372C49.9336 154.372 52.9732 157.834 58.2419 159.158C63.5105 160.483 68.7341 159.716 68.7341 159.716" stroke="black" stroke-width="1.1669" stroke-linecap="round" stroke-linejoin="round"/>
<path d="M68.5545 189.99C76.0522 187.202 80.9832 177.327 80.9832 166.291M32.8223 174.098C32.8223 174.098 36.0195 186.203 45.7687 191.315L32.8223 174.098Z" stroke="#6CA3B7" stroke-width="1.1669" stroke-linecap="round" stroke-linejoin="round"/>
<path fill-rule="evenodd" clip-rule="evenodd" d="M49.3711 187.946L67.9915 191.965C67.9915 191.965 68.8021 187.179 68.8021 186.9C68.8021 186.598 78.7765 180.604 79.4294 178.373C80.0599 176.143 78.5738 174.214 78.5738 174.214C78.5738 174.214 79.6546 172.448 79.1367 170.659C78.5964 168.847 77.9659 168.475 77.9659 168.475C77.9659 168.475 78.844 166.198 77.9659 165.06C77.0653 163.944 75.7369 163.619 75.7369 163.619C75.7369 163.619 78.4613 159.669 78.101 157.927C77.7408 156.161 74.7462 157.253 74.7462 157.253L61.0117 162.597C61.0117 162.597 55.5854 150.561 51.6001 152.234C47.9751 153.744 54.3245 160.994 54.3245 167.22C54.3245 173.424 49.3711 187.946 49.3711 187.946Z" fill="white" stroke="black" stroke-width="1.1669" stroke-linecap="round" stroke-linejoin="round"/>
<path d="M32.0803 259.416L33.7015 251.237L39.0827 221.869L45.342 193.244L46.648 187.319L49.3723 187.946L67.9928 191.966L73.8018 193.708C73.8018 193.708 74.0495 236.925 69.6589 264.458C65.2684 291.99 51.5113 295.336 43.8785 295.592C36.2232 295.847 29.5586 290.294 29.5586 290.294" stroke="black" stroke-width="1.1669" stroke-linecap="round" stroke-linejoin="round"/>
<path fill-rule="evenodd" clip-rule="evenodd" d="M74.5215 332.86L125.092 349.194L199.663 312.228L211.934 264.411L215.289 250.122L210.741 247.38L204.639 250.122C189.779 256.628 139.704 279.212 139.704 279.212L136.62 280.745C135.967 284.346 134.976 287.646 133.94 290.875L131.171 303.515L130.113 304.049L74.5215 332.86Z" fill="#4E5CDF"/>
<path d="M125.947 345.547L140.83 283.046L212.295 251.354" stroke="white" stroke-width="1.1669" stroke-linecap="round" stroke-linejoin="round"/>
<path d="M130.473 306.094L122.457 341.782" stroke="black" stroke-width="1.1669" stroke-linecap="round" stroke-linejoin="round"/>
<path d="M112.527 318.826L129.752 309.3" stroke="black" stroke-width="1.1669" stroke-linecap="round" stroke-linejoin="round"/>
<path d="M120.769 338.111L114.803 336.183L120.522 332.651" stroke="black" stroke-width="1.1669" stroke-linecap="round" stroke-linejoin="round"/>
<path d="M112.304 335.555L107.125 334.091L113.519 330.513" stroke="black" stroke-width="1.1669" stroke-linecap="round" stroke-linejoin="round"/>
<path d="M104.445 333.325L99.8066 331.838L106.471 328.353" stroke="black" stroke-width="1.1669" stroke-linecap="round" stroke-linejoin="round"/>
<path d="M121.398 330.398L116.242 328.911L122.614 325.356" stroke="black" stroke-width="1.1669" stroke-linecap="round" stroke-linejoin="round"/>
<path d="M113.563 328.167L108.902 326.68L115.567 323.171" stroke="black" stroke-width="1.1669" stroke-linecap="round" stroke-linejoin="round"/>
<path d="M123.403 322.568L118.742 321.104L125.407 317.596" stroke="black" stroke-width="1.1669" stroke-linecap="round" stroke-linejoin="round"/>
</svg>
