<?xml version="1.0" encoding="UTF-8"?>
<svg width="44px" height="44px" viewBox="0 0 44 44" version="1.1" xmlns="http://www.w3.org/2000/svg" xmlns:xlink="http://www.w3.org/1999/xlink">
    <title>ic-cookie</title>
    <g id="Design" stroke="none" stroke-width="1" fill="none" fill-rule="evenodd">
        <g id="Desktop---1440-(Cookies)" transform="translate(-80.000000, -959.000000)" fill="#4E5CDF" fill-rule="nonzero">
            <g id="Cookies" transform="translate(50.000000, 931.000000)">
                <g id="ic-cookie" transform="translate(30.000000, 28.000000)">
                    <path d="M21.12,0 C9.45648,0 0,9.8505 0,22 C0,34.1495 9.45648,44 21.12,44 C32.78352,44 42.24,34.1495 42.24,22 C42.24,21.3785 42.1999054,20.7645918 42.1506254,20.1559252 C39.7535054,20.1137585 37.7612118,18.4053778 37.1628118,16.0953778 C36.5538518,16.3502112 35.8952,16.5 35.2,16.5 C32.28368,16.5 29.92,14.0378333 29.92,11 C27.00368,11 24.64,8.53783333 24.64,5.5 C24.64,5.0545 24.7047627,4.62527083 24.8015627,4.2109375 C23.6593227,3.2209375 22.9167118,1.75409905 22.8903118,0.0930988667 C22.3042318,0.0417657167 21.71664,0 21.12,0 Z M38.72,1.83333333 C37.7479788,1.83333333 36.96,2.65414463 36.96,3.66666667 C36.96,4.67918871 37.7479788,5.5 38.72,5.5 C39.6920212,5.5 40.48,4.67918871 40.48,3.66666667 C40.48,2.65414463 39.6920212,1.83333333 38.72,1.83333333 Z M29.92,3.66666667 C28.9479788,3.66666667 28.16,4.48747796 28.16,5.5 C28.16,6.51252204 28.9479788,7.33333333 29.92,7.33333333 C30.8920212,7.33333333 31.68,6.51252204 31.68,5.5 C31.68,4.48747796 30.8920212,3.66666667 29.92,3.66666667 Z M14.08,7.33333333 C15.05152,7.33333333 15.84,8.15466667 15.84,9.16666667 C15.84,10.1786667 15.05152,11 14.08,11 C13.10848,11 12.32,10.1786667 12.32,9.16666667 C12.32,8.15466667 13.10848,7.33333333 14.08,7.33333333 Z M42.24,11 C41.2679788,11 40.48,11.8208113 40.48,12.8333333 C40.48,13.8458554 41.2679788,14.6666667 42.24,14.6666667 C43.2120212,14.6666667 44,13.8458554 44,12.8333333 C44,11.8208113 43.2120212,11 42.24,11 Z M26.4,14.6666667 C27.37152,14.6666667 28.16,15.488 28.16,16.5 C28.16,17.512 27.37152,18.3333333 26.4,18.3333333 C25.42848,18.3333333 24.64,17.512 24.64,16.5 C24.64,15.488 25.42848,14.6666667 26.4,14.6666667 Z M19.36,18.3333333 C20.33152,18.3333333 21.12,19.1546667 21.12,20.1666667 C21.12,21.1786667 20.33152,22 19.36,22 C18.38848,22 17.6,21.1786667 17.6,20.1666667 C17.6,19.1546667 18.38848,18.3333333 19.36,18.3333333 Z M10.56,22 C12.5048,22 14.08,23.6408333 14.08,25.6666667 C14.08,27.6925 12.5048,29.3333333 10.56,29.3333333 C8.6152,29.3333333 7.04,27.6925 7.04,25.6666667 C7.04,23.6408333 8.6152,22 10.56,22 Z M33.44,22 C34.41152,22 35.2,22.8213333 35.2,23.8333333 C35.2,24.8453333 34.41152,25.6666667 33.44,25.6666667 C32.46848,25.6666667 31.68,24.8453333 31.68,23.8333333 C31.68,22.8213333 32.46848,22 33.44,22 Z M24.64,29.3333333 C25.61152,29.3333333 26.4,30.1546667 26.4,31.1666667 C26.4,32.1786667 25.61152,33 24.64,33 C23.66848,33 22.88,32.1786667 22.88,31.1666667 C22.88,30.1546667 23.66848,29.3333333 24.64,29.3333333 Z M17.6,34.8333333 C18.57152,34.8333333 19.36,35.6546667 19.36,36.6666667 C19.36,37.6786667 18.57152,38.5 17.6,38.5 C16.62848,38.5 15.84,37.6786667 15.84,36.6666667 C15.84,35.6546667 16.62848,34.8333333 17.6,34.8333333 Z" id="Shape"></path>
                </g>
            </g>
        </g>
    </g>
</svg>